<mxfile host="app.diagrams.net" modified="2022-04-13T09:00:57.655Z" agent="5.0 (Windows NT 10.0; Win64; x64) AppleWebKit/537.36 (KHTML, like Gecko) Chrome/100.0.4896.88 Safari/537.36" etag="uI76DakFMczL3hlUCDar" version="17.4.3" type="github">
  <diagram id="C5RBs43oDa-KdzZeNtuy" name="Page-1">
    <mxGraphModel dx="10280" dy="5993" grid="1" gridSize="10" guides="1" tooltips="1" connect="1" arrows="1" fold="1" page="0" pageScale="1" pageWidth="827" pageHeight="1169" math="0" shadow="0">
      <root>
        <mxCell id="WIyWlLk6GJQsqaUBKTNV-0" />
        <mxCell id="WIyWlLk6GJQsqaUBKTNV-1" parent="WIyWlLk6GJQsqaUBKTNV-0" />
        <mxCell id="LVHmEP1wuOwJt7Tg6OT3-13" value="" style="swimlane;startSize=0;swimlaneFillColor=default;" parent="WIyWlLk6GJQsqaUBKTNV-1" vertex="1">
          <mxGeometry x="-80" y="-210" width="1280" height="740" as="geometry">
            <mxRectangle width="50" height="40" as="alternateBounds" />
          </mxGeometry>
        </mxCell>
        <mxCell id="TFoFpKyex_mGpCQr0z2i-4" value="로그인 페이지" style="rounded=1;whiteSpace=wrap;html=1;fontFamily=Helvetica;fontSize=12;fillColor=#dae8fc;strokeColor=#6c8ebf;" parent="LVHmEP1wuOwJt7Tg6OT3-13" vertex="1">
          <mxGeometry x="160" y="380" width="80" height="40" as="geometry" />
        </mxCell>
        <mxCell id="ablvSvCCow3iUMbK2iKx-5" style="edgeStyle=orthogonalEdgeStyle;rounded=0;orthogonalLoop=1;jettySize=auto;html=1;exitX=0;exitY=0.5;exitDx=0;exitDy=0;entryX=0.5;entryY=0;entryDx=0;entryDy=0;" parent="LVHmEP1wuOwJt7Tg6OT3-13" source="TFoFpKyex_mGpCQr0z2i-6" target="ablvSvCCow3iUMbK2iKx-4" edge="1">
          <mxGeometry relative="1" as="geometry">
            <mxPoint x="320" y="220" as="targetPoint" />
          </mxGeometry>
        </mxCell>
        <mxCell id="ablvSvCCow3iUMbK2iKx-37" style="edgeStyle=orthogonalEdgeStyle;rounded=0;orthogonalLoop=1;jettySize=auto;html=1;exitX=1;exitY=0.5;exitDx=0;exitDy=0;" parent="LVHmEP1wuOwJt7Tg6OT3-13" source="TFoFpKyex_mGpCQr0z2i-6" target="ru8gIQDLFA-sraK7q3Yt-1" edge="1">
          <mxGeometry relative="1" as="geometry" />
        </mxCell>
        <mxCell id="ablvSvCCow3iUMbK2iKx-38" style="edgeStyle=orthogonalEdgeStyle;rounded=0;orthogonalLoop=1;jettySize=auto;html=1;exitX=1;exitY=0.5;exitDx=0;exitDy=0;" parent="LVHmEP1wuOwJt7Tg6OT3-13" source="TFoFpKyex_mGpCQr0z2i-6" target="ablvSvCCow3iUMbK2iKx-0" edge="1">
          <mxGeometry relative="1" as="geometry" />
        </mxCell>
        <mxCell id="ablvSvCCow3iUMbK2iKx-39" style="edgeStyle=orthogonalEdgeStyle;rounded=0;orthogonalLoop=1;jettySize=auto;html=1;exitX=1;exitY=0.5;exitDx=0;exitDy=0;entryX=0.5;entryY=0;entryDx=0;entryDy=0;" parent="LVHmEP1wuOwJt7Tg6OT3-13" source="TFoFpKyex_mGpCQr0z2i-6" target="ru8gIQDLFA-sraK7q3Yt-0" edge="1">
          <mxGeometry relative="1" as="geometry">
            <mxPoint x="1039.9411764705883" y="300" as="targetPoint" />
          </mxGeometry>
        </mxCell>
        <mxCell id="ablvSvCCow3iUMbK2iKx-25" style="edgeStyle=orthogonalEdgeStyle;rounded=0;orthogonalLoop=1;jettySize=auto;html=1;exitX=0.5;exitY=1;exitDx=0;exitDy=0;" parent="LVHmEP1wuOwJt7Tg6OT3-13" source="TFoFpKyex_mGpCQr0z2i-7" target="TFoFpKyex_mGpCQr0z2i-6" edge="1">
          <mxGeometry relative="1" as="geometry" />
        </mxCell>
        <mxCell id="TFoFpKyex_mGpCQr0z2i-7" value="사이트 접속" style="ellipse;whiteSpace=wrap;html=1;fontFamily=Helvetica;fontSize=12;" parent="LVHmEP1wuOwJt7Tg6OT3-13" vertex="1">
          <mxGeometry x="640" y="80" width="80" height="40" as="geometry" />
        </mxCell>
        <mxCell id="TFoFpKyex_mGpCQr0z2i-48" value="커뮤니티" style="rounded=1;whiteSpace=wrap;html=1;fontFamily=Helvetica;fontSize=12;fillColor=#dae8fc;strokeColor=#6c8ebf;" parent="LVHmEP1wuOwJt7Tg6OT3-13" vertex="1">
          <mxGeometry x="520" y="380" width="80" height="40" as="geometry" />
        </mxCell>
        <mxCell id="TFoFpKyex_mGpCQr0z2i-49" style="edgeStyle=orthogonalEdgeStyle;rounded=0;orthogonalLoop=1;jettySize=auto;html=1;exitX=0.5;exitY=1;exitDx=0;exitDy=0;fontFamily=Helvetica;fontSize=12;" parent="LVHmEP1wuOwJt7Tg6OT3-13" edge="1">
          <mxGeometry relative="1" as="geometry">
            <mxPoint x="80" y="420" as="sourcePoint" />
            <mxPoint x="80" y="420" as="targetPoint" />
          </mxGeometry>
        </mxCell>
        <mxCell id="ru8gIQDLFA-sraK7q3Yt-1" value="펀딩 목록" style="rounded=1;whiteSpace=wrap;html=1;fillColor=#dae8fc;strokeColor=#6c8ebf;" parent="LVHmEP1wuOwJt7Tg6OT3-13" vertex="1">
          <mxGeometry x="760" y="300" width="80" height="40" as="geometry" />
        </mxCell>
        <mxCell id="ru8gIQDLFA-sraK7q3Yt-2" value="마이페이지" style="rounded=1;whiteSpace=wrap;html=1;fillColor=#dae8fc;strokeColor=#6c8ebf;" parent="LVHmEP1wuOwJt7Tg6OT3-13" vertex="1">
          <mxGeometry x="400" y="380" width="80" height="40" as="geometry" />
        </mxCell>
        <mxCell id="ablvSvCCow3iUMbK2iKx-28" style="edgeStyle=orthogonalEdgeStyle;rounded=0;orthogonalLoop=1;jettySize=auto;html=1;exitX=0.5;exitY=1;exitDx=0;exitDy=0;" parent="LVHmEP1wuOwJt7Tg6OT3-13" source="ablvSvCCow3iUMbK2iKx-0" target="TFoFpKyex_mGpCQr0z2i-47" edge="1">
          <mxGeometry relative="1" as="geometry" />
        </mxCell>
        <mxCell id="ablvSvCCow3iUMbK2iKx-0" value="신규 펀딩&lt;br&gt;프로젝트" style="rounded=1;whiteSpace=wrap;html=1;fillColor=#dae8fc;strokeColor=#6c8ebf;" parent="LVHmEP1wuOwJt7Tg6OT3-13" vertex="1">
          <mxGeometry x="880" y="300" width="80" height="40" as="geometry" />
        </mxCell>
        <mxCell id="ablvSvCCow3iUMbK2iKx-30" style="edgeStyle=orthogonalEdgeStyle;rounded=0;orthogonalLoop=1;jettySize=auto;html=1;exitX=1;exitY=0.5;exitDx=0;exitDy=0;" parent="LVHmEP1wuOwJt7Tg6OT3-13" source="ablvSvCCow3iUMbK2iKx-4" target="ru8gIQDLFA-sraK7q3Yt-2" edge="1">
          <mxGeometry relative="1" as="geometry" />
        </mxCell>
        <mxCell id="ablvSvCCow3iUMbK2iKx-31" style="edgeStyle=orthogonalEdgeStyle;rounded=0;orthogonalLoop=1;jettySize=auto;html=1;exitX=1;exitY=0.5;exitDx=0;exitDy=0;" parent="LVHmEP1wuOwJt7Tg6OT3-13" source="ablvSvCCow3iUMbK2iKx-4" target="TFoFpKyex_mGpCQr0z2i-48" edge="1">
          <mxGeometry relative="1" as="geometry" />
        </mxCell>
        <mxCell id="ablvSvCCow3iUMbK2iKx-32" value="O" style="edgeLabel;html=1;align=center;verticalAlign=middle;resizable=0;points=[];fontSize=20;" parent="ablvSvCCow3iUMbK2iKx-31" vertex="1" connectable="0">
          <mxGeometry x="-0.7214" y="4" relative="1" as="geometry">
            <mxPoint x="1" y="4" as="offset" />
          </mxGeometry>
        </mxCell>
        <mxCell id="ablvSvCCow3iUMbK2iKx-34" style="edgeStyle=orthogonalEdgeStyle;rounded=0;orthogonalLoop=1;jettySize=auto;html=1;exitX=0;exitY=0.5;exitDx=0;exitDy=0;entryX=0.5;entryY=0;entryDx=0;entryDy=0;" parent="LVHmEP1wuOwJt7Tg6OT3-13" source="ablvSvCCow3iUMbK2iKx-4" target="TFoFpKyex_mGpCQr0z2i-2" edge="1">
          <mxGeometry relative="1" as="geometry">
            <mxPoint x="80" y="380" as="targetPoint" />
          </mxGeometry>
        </mxCell>
        <mxCell id="ablvSvCCow3iUMbK2iKx-35" style="edgeStyle=orthogonalEdgeStyle;rounded=0;orthogonalLoop=1;jettySize=auto;html=1;exitX=0;exitY=0.5;exitDx=0;exitDy=0;" parent="LVHmEP1wuOwJt7Tg6OT3-13" source="ablvSvCCow3iUMbK2iKx-4" target="TFoFpKyex_mGpCQr0z2i-4" edge="1">
          <mxGeometry relative="1" as="geometry">
            <mxPoint x="200" y="380" as="targetPoint" />
          </mxGeometry>
        </mxCell>
        <mxCell id="ablvSvCCow3iUMbK2iKx-36" value="X" style="edgeLabel;html=1;align=center;verticalAlign=middle;resizable=0;points=[];fontSize=20;fontColor=#FF0000;" parent="ablvSvCCow3iUMbK2iKx-35" vertex="1" connectable="0">
          <mxGeometry x="-0.3625" y="1" relative="1" as="geometry">
            <mxPoint as="offset" />
          </mxGeometry>
        </mxCell>
        <mxCell id="ablvSvCCow3iUMbK2iKx-4" value="로그인&lt;br&gt;유무" style="rhombus;whiteSpace=wrap;html=1;" parent="LVHmEP1wuOwJt7Tg6OT3-13" vertex="1">
          <mxGeometry x="280" y="260" width="80" height="80" as="geometry" />
        </mxCell>
        <mxCell id="ablvSvCCow3iUMbK2iKx-27" value="" style="endArrow=classic;html=1;rounded=0;" parent="LVHmEP1wuOwJt7Tg6OT3-13" source="ru8gIQDLFA-sraK7q3Yt-1" target="TFoFpKyex_mGpCQr0z2i-47" edge="1">
          <mxGeometry width="50" height="50" relative="1" as="geometry">
            <mxPoint x="620" y="490" as="sourcePoint" />
            <mxPoint x="670" y="440" as="targetPoint" />
          </mxGeometry>
        </mxCell>
        <mxCell id="h0dkJCLv4vn6OwPPe1Ix-5" value="" style="edgeStyle=orthogonalEdgeStyle;rounded=0;orthogonalLoop=1;jettySize=auto;html=1;entryX=0.5;entryY=0;entryDx=0;entryDy=0;" parent="LVHmEP1wuOwJt7Tg6OT3-13" source="TFoFpKyex_mGpCQr0z2i-6" target="h0dkJCLv4vn6OwPPe1Ix-4" edge="1">
          <mxGeometry relative="1" as="geometry">
            <mxPoint x="1160" y="300" as="targetPoint" />
          </mxGeometry>
        </mxCell>
        <mxCell id="TFoFpKyex_mGpCQr0z2i-6" value="메인 페이지" style="rounded=1;whiteSpace=wrap;html=1;fontFamily=Helvetica;fontSize=12;fillColor=#dae8fc;strokeColor=#6c8ebf;" parent="LVHmEP1wuOwJt7Tg6OT3-13" vertex="1">
          <mxGeometry x="640" y="220" width="80" height="40" as="geometry" />
        </mxCell>
        <mxCell id="BleKba01Y9FsckT0XKlY-7" style="edgeStyle=orthogonalEdgeStyle;orthogonalLoop=1;jettySize=auto;html=1;exitX=0;exitY=0.5;exitDx=0;exitDy=0;entryX=1;entryY=0.5;entryDx=0;entryDy=0;curved=1;dashed=1;" parent="LVHmEP1wuOwJt7Tg6OT3-13" source="TFoFpKyex_mGpCQr0z2i-47" target="BleKba01Y9FsckT0XKlY-4" edge="1">
          <mxGeometry relative="1" as="geometry" />
        </mxCell>
        <mxCell id="-jMlobWcgN1Pwo5BUIlO-1" value="" style="edgeStyle=orthogonalEdgeStyle;rounded=0;orthogonalLoop=1;jettySize=auto;html=1;" parent="LVHmEP1wuOwJt7Tg6OT3-13" source="TFoFpKyex_mGpCQr0z2i-47" target="-jMlobWcgN1Pwo5BUIlO-0" edge="1">
          <mxGeometry relative="1" as="geometry" />
        </mxCell>
        <mxCell id="-jMlobWcgN1Pwo5BUIlO-4" style="edgeStyle=orthogonalEdgeStyle;rounded=0;orthogonalLoop=1;jettySize=auto;html=1;exitX=0.5;exitY=1;exitDx=0;exitDy=0;" parent="LVHmEP1wuOwJt7Tg6OT3-13" source="TFoFpKyex_mGpCQr0z2i-47" target="-jMlobWcgN1Pwo5BUIlO-2" edge="1">
          <mxGeometry relative="1" as="geometry" />
        </mxCell>
        <mxCell id="TFoFpKyex_mGpCQr0z2i-47" value="프로젝트&lt;br&gt;페이지" style="rounded=1;whiteSpace=wrap;html=1;fontFamily=Helvetica;fontSize=12;fillColor=#dae8fc;strokeColor=#6c8ebf;" parent="LVHmEP1wuOwJt7Tg6OT3-13" vertex="1">
          <mxGeometry x="760" y="500" width="80" height="40" as="geometry" />
        </mxCell>
        <mxCell id="ru8gIQDLFA-sraK7q3Yt-0" value="사이트 소개?" style="rounded=1;whiteSpace=wrap;html=1;fillColor=#dae8fc;strokeColor=#6c8ebf;" parent="LVHmEP1wuOwJt7Tg6OT3-13" vertex="1">
          <mxGeometry x="1000" y="300" width="80" height="40" as="geometry" />
        </mxCell>
        <mxCell id="TFoFpKyex_mGpCQr0z2i-2" value="회원가입" style="rounded=1;whiteSpace=wrap;html=1;fontFamily=Helvetica;fontSize=12;fillColor=#dae8fc;strokeColor=#6c8ebf;" parent="LVHmEP1wuOwJt7Tg6OT3-13" vertex="1">
          <mxGeometry x="40" y="380" width="80" height="40" as="geometry" />
        </mxCell>
        <mxCell id="h0dkJCLv4vn6OwPPe1Ix-4" value="공지사항" style="whiteSpace=wrap;html=1;rounded=1;fillColor=#dae8fc;strokeColor=#6c8ebf;" parent="LVHmEP1wuOwJt7Tg6OT3-13" vertex="1">
          <mxGeometry x="1120" y="300" width="80" height="40" as="geometry" />
        </mxCell>
        <mxCell id="h0dkJCLv4vn6OwPPe1Ix-14" value="기능" style="swimlane;fontStyle=0;childLayout=stackLayout;horizontal=1;startSize=20;horizontalStack=0;resizeParent=1;resizeParentMax=0;resizeLast=0;collapsible=1;marginBottom=0;swimlaneLine=1;glass=0;rounded=0;shadow=0;sketch=0;fillColor=#f8cecc;strokeColor=#b85450;" parent="LVHmEP1wuOwJt7Tg6OT3-13" vertex="1">
          <mxGeometry x="380" y="60" width="140" height="100" as="geometry" />
        </mxCell>
        <mxCell id="h0dkJCLv4vn6OwPPe1Ix-15" value="실시간 랭킹" style="text;strokeColor=none;fillColor=none;align=left;verticalAlign=middle;spacingLeft=4;spacingRight=4;overflow=hidden;points=[[0,0.5],[1,0.5]];portConstraint=eastwest;rotatable=0;" parent="h0dkJCLv4vn6OwPPe1Ix-14" vertex="1">
          <mxGeometry y="20" width="140" height="20" as="geometry" />
        </mxCell>
        <mxCell id="h0dkJCLv4vn6OwPPe1Ix-16" value="배너" style="text;strokeColor=none;fillColor=none;align=left;verticalAlign=middle;spacingLeft=4;spacingRight=4;overflow=hidden;points=[[0,0.5],[1,0.5]];portConstraint=eastwest;rotatable=0;" parent="h0dkJCLv4vn6OwPPe1Ix-14" vertex="1">
          <mxGeometry y="40" width="140" height="20" as="geometry" />
        </mxCell>
        <mxCell id="h0dkJCLv4vn6OwPPe1Ix-32" value="신규펀딩프로젝트" style="text;strokeColor=none;fillColor=none;align=left;verticalAlign=middle;spacingLeft=4;spacingRight=4;overflow=hidden;points=[[0,0.5],[1,0.5]];portConstraint=eastwest;rotatable=0;" parent="h0dkJCLv4vn6OwPPe1Ix-14" vertex="1">
          <mxGeometry y="60" width="140" height="20" as="geometry" />
        </mxCell>
        <mxCell id="BleKba01Y9FsckT0XKlY-55" value="검색" style="text;strokeColor=none;fillColor=none;align=left;verticalAlign=middle;spacingLeft=4;spacingRight=4;overflow=hidden;points=[[0,0.5],[1,0.5]];portConstraint=eastwest;rotatable=0;" parent="h0dkJCLv4vn6OwPPe1Ix-14" vertex="1">
          <mxGeometry y="80" width="140" height="20" as="geometry" />
        </mxCell>
        <mxCell id="BleKba01Y9FsckT0XKlY-0" value="" style="curved=1;endArrow=classic;html=1;rounded=0;exitX=0;exitY=0;exitDx=0;exitDy=0;entryX=1;entryY=0.5;entryDx=0;entryDy=0;dashed=1;" parent="LVHmEP1wuOwJt7Tg6OT3-13" source="TFoFpKyex_mGpCQr0z2i-6" target="h0dkJCLv4vn6OwPPe1Ix-16" edge="1">
          <mxGeometry width="50" height="50" relative="1" as="geometry">
            <mxPoint x="610" y="450" as="sourcePoint" />
            <mxPoint x="660" y="400" as="targetPoint" />
            <Array as="points">
              <mxPoint x="610" y="150" />
            </Array>
          </mxGeometry>
        </mxCell>
        <mxCell id="BleKba01Y9FsckT0XKlY-1" value="기능" style="swimlane;fontStyle=0;childLayout=stackLayout;horizontal=1;startSize=20;horizontalStack=0;resizeParent=1;resizeParentMax=0;resizeLast=0;collapsible=1;marginBottom=0;fillColor=#f8cecc;strokeColor=#b85450;" parent="LVHmEP1wuOwJt7Tg6OT3-13" vertex="1">
          <mxGeometry x="520" y="500" width="140" height="80" as="geometry" />
        </mxCell>
        <mxCell id="BleKba01Y9FsckT0XKlY-2" value="후원 신청" style="text;strokeColor=none;fillColor=none;align=left;verticalAlign=middle;spacingLeft=4;spacingRight=4;overflow=hidden;points=[[0,0.5],[1,0.5]];portConstraint=eastwest;rotatable=0;" parent="BleKba01Y9FsckT0XKlY-1" vertex="1">
          <mxGeometry y="20" width="140" height="20" as="geometry" />
        </mxCell>
        <mxCell id="BleKba01Y9FsckT0XKlY-4" value="좋아요" style="text;strokeColor=none;fillColor=none;align=left;verticalAlign=middle;spacingLeft=4;spacingRight=4;overflow=hidden;points=[[0,0.5],[1,0.5]];portConstraint=eastwest;rotatable=0;" parent="BleKba01Y9FsckT0XKlY-1" vertex="1">
          <mxGeometry y="40" width="140" height="20" as="geometry" />
        </mxCell>
        <mxCell id="BleKba01Y9FsckT0XKlY-6" value="공유하기" style="text;strokeColor=none;fillColor=none;align=left;verticalAlign=middle;spacingLeft=4;spacingRight=4;overflow=hidden;points=[[0,0.5],[1,0.5]];portConstraint=eastwest;rotatable=0;" parent="BleKba01Y9FsckT0XKlY-1" vertex="1">
          <mxGeometry y="60" width="140" height="20" as="geometry" />
        </mxCell>
        <mxCell id="-jMlobWcgN1Pwo5BUIlO-0" value="Q&amp;amp;A" style="whiteSpace=wrap;html=1;rounded=1;fillColor=#dae8fc;strokeColor=#6c8ebf;" parent="LVHmEP1wuOwJt7Tg6OT3-13" vertex="1">
          <mxGeometry x="690" y="610" width="80" height="40" as="geometry" />
        </mxCell>
        <mxCell id="-jMlobWcgN1Pwo5BUIlO-2" value="상세정보" style="whiteSpace=wrap;html=1;rounded=1;fillColor=#dae8fc;strokeColor=#6c8ebf;" parent="LVHmEP1wuOwJt7Tg6OT3-13" vertex="1">
          <mxGeometry x="830" y="610" width="80" height="40" as="geometry" />
        </mxCell>
        <mxCell id="BleKba01Y9FsckT0XKlY-48" value="" style="group" parent="WIyWlLk6GJQsqaUBKTNV-1" vertex="1" connectable="0">
          <mxGeometry x="-780" y="600" width="1340" height="890" as="geometry" />
        </mxCell>
        <mxCell id="BleKba01Y9FsckT0XKlY-47" value="" style="swimlane;startSize=0;rounded=0;swimlaneFillColor=default;" parent="BleKba01Y9FsckT0XKlY-48" vertex="1">
          <mxGeometry width="1280" height="890" as="geometry" />
        </mxCell>
        <mxCell id="BleKba01Y9FsckT0XKlY-61" style="edgeStyle=orthogonalEdgeStyle;curved=1;orthogonalLoop=1;jettySize=auto;html=1;exitX=0.5;exitY=1;exitDx=0;exitDy=0;shadow=0;dashed=1;fontSize=12;fontColor=#000000;startArrow=none;startFill=0;endArrow=classic;endFill=1;strokeColor=#000000;fillColor=#4D4D4D;" parent="BleKba01Y9FsckT0XKlY-47" source="BleKba01Y9FsckT0XKlY-8" target="BleKba01Y9FsckT0XKlY-57" edge="1">
          <mxGeometry relative="1" as="geometry" />
        </mxCell>
        <mxCell id="BleKba01Y9FsckT0XKlY-8" value="판매자 신청" style="rounded=1;whiteSpace=wrap;html=1;fillColor=#dae8fc;strokeColor=#6c8ebf;" parent="BleKba01Y9FsckT0XKlY-47" vertex="1">
          <mxGeometry x="70" y="520" width="120" height="60" as="geometry" />
        </mxCell>
        <mxCell id="BleKba01Y9FsckT0XKlY-37" value="기능" style="swimlane;fontStyle=0;childLayout=stackLayout;horizontal=1;startSize=30;horizontalStack=0;resizeParent=1;resizeParentMax=0;resizeLast=0;collapsible=1;marginBottom=0;rounded=0;fillColor=#f8cecc;strokeColor=#b85450;" parent="BleKba01Y9FsckT0XKlY-47" vertex="1">
          <mxGeometry x="230" y="520" width="140" height="90" as="geometry">
            <mxRectangle x="160" y="650" width="60" height="30" as="alternateBounds" />
          </mxGeometry>
        </mxCell>
        <mxCell id="BleKba01Y9FsckT0XKlY-38" value="계좌등록" style="text;strokeColor=none;fillColor=none;align=left;verticalAlign=middle;spacingLeft=4;spacingRight=4;overflow=hidden;points=[[0,0.5],[1,0.5]];portConstraint=eastwest;rotatable=0;rounded=0;" parent="BleKba01Y9FsckT0XKlY-37" vertex="1">
          <mxGeometry y="30" width="140" height="30" as="geometry" />
        </mxCell>
        <mxCell id="BleKba01Y9FsckT0XKlY-39" value="받은 좋아요 현황" style="text;strokeColor=none;fillColor=none;align=left;verticalAlign=middle;spacingLeft=4;spacingRight=4;overflow=hidden;points=[[0,0.5],[1,0.5]];portConstraint=eastwest;rotatable=0;rounded=0;" parent="BleKba01Y9FsckT0XKlY-37" vertex="1">
          <mxGeometry y="60" width="140" height="30" as="geometry" />
        </mxCell>
        <mxCell id="BleKba01Y9FsckT0XKlY-57" value="기능" style="swimlane;fontStyle=0;childLayout=stackLayout;horizontal=1;startSize=30;horizontalStack=0;resizeParent=1;resizeParentMax=0;resizeLast=0;collapsible=1;marginBottom=0;rounded=0;fontSize=13;fillColor=#f8cecc;strokeColor=#b85450;" parent="BleKba01Y9FsckT0XKlY-47" vertex="1">
          <mxGeometry x="110" y="680" width="140" height="60" as="geometry" />
        </mxCell>
        <mxCell id="BleKba01Y9FsckT0XKlY-60" value="관리자 검사" style="text;strokeColor=none;fillColor=none;align=left;verticalAlign=middle;spacingLeft=4;spacingRight=4;overflow=hidden;points=[[0,0.5],[1,0.5]];portConstraint=eastwest;rotatable=0;rounded=0;fontSize=12;fontColor=#000000;" parent="BleKba01Y9FsckT0XKlY-57" vertex="1">
          <mxGeometry y="30" width="140" height="30" as="geometry" />
        </mxCell>
        <mxCell id="h0dkJCLv4vn6OwPPe1Ix-3" value="마이페이지" style="rounded=1;whiteSpace=wrap;html=1;fillColor=#dae8fc;strokeColor=#6c8ebf;" parent="BleKba01Y9FsckT0XKlY-48" vertex="1">
          <mxGeometry x="750" y="200" width="120" height="60" as="geometry" />
        </mxCell>
        <mxCell id="BleKba01Y9FsckT0XKlY-9" value="판매자 마이페이지" style="rounded=1;whiteSpace=wrap;html=1;fillColor=#dae8fc;strokeColor=#6c8ebf;" parent="BleKba01Y9FsckT0XKlY-48" vertex="1">
          <mxGeometry x="430" y="440" width="120" height="60" as="geometry" />
        </mxCell>
        <mxCell id="BleKba01Y9FsckT0XKlY-10" value="좋아요 목록" style="rounded=1;whiteSpace=wrap;html=1;fillColor=#dae8fc;strokeColor=#6c8ebf;" parent="BleKba01Y9FsckT0XKlY-48" vertex="1">
          <mxGeometry x="590" y="440" width="120" height="60" as="geometry" />
        </mxCell>
        <mxCell id="BleKba01Y9FsckT0XKlY-23" style="edgeStyle=orthogonalEdgeStyle;rounded=0;orthogonalLoop=1;jettySize=auto;html=1;exitX=0.5;exitY=1;exitDx=0;exitDy=0;strokeColor=default;" parent="BleKba01Y9FsckT0XKlY-48" source="h0dkJCLv4vn6OwPPe1Ix-3" target="BleKba01Y9FsckT0XKlY-10" edge="1">
          <mxGeometry relative="1" as="geometry" />
        </mxCell>
        <mxCell id="BleKba01Y9FsckT0XKlY-11" value="회원탈퇴" style="rounded=1;whiteSpace=wrap;html=1;fillColor=#dae8fc;strokeColor=#6c8ebf;" parent="BleKba01Y9FsckT0XKlY-48" vertex="1">
          <mxGeometry x="1070" y="440" width="120" height="60" as="geometry" />
        </mxCell>
        <mxCell id="BleKba01Y9FsckT0XKlY-26" style="edgeStyle=orthogonalEdgeStyle;rounded=0;orthogonalLoop=1;jettySize=auto;html=1;exitX=0.5;exitY=1;exitDx=0;exitDy=0;strokeColor=default;" parent="BleKba01Y9FsckT0XKlY-48" source="h0dkJCLv4vn6OwPPe1Ix-3" target="BleKba01Y9FsckT0XKlY-11" edge="1">
          <mxGeometry relative="1" as="geometry" />
        </mxCell>
        <mxCell id="BleKba01Y9FsckT0XKlY-12" value="나의 Q&amp;amp;A" style="rounded=1;whiteSpace=wrap;html=1;fillColor=#dae8fc;strokeColor=#6c8ebf;" parent="BleKba01Y9FsckT0XKlY-48" vertex="1">
          <mxGeometry x="750" y="440" width="120" height="60" as="geometry" />
        </mxCell>
        <mxCell id="BleKba01Y9FsckT0XKlY-24" style="edgeStyle=orthogonalEdgeStyle;rounded=0;orthogonalLoop=1;jettySize=auto;html=1;exitX=0.5;exitY=1;exitDx=0;exitDy=0;strokeColor=default;" parent="BleKba01Y9FsckT0XKlY-48" source="h0dkJCLv4vn6OwPPe1Ix-3" target="BleKba01Y9FsckT0XKlY-12" edge="1">
          <mxGeometry relative="1" as="geometry" />
        </mxCell>
        <mxCell id="BleKba01Y9FsckT0XKlY-13" value="회원 정보 수정" style="rounded=1;whiteSpace=wrap;html=1;fillColor=#dae8fc;strokeColor=#6c8ebf;" parent="BleKba01Y9FsckT0XKlY-48" vertex="1">
          <mxGeometry x="910" y="440" width="120" height="60" as="geometry" />
        </mxCell>
        <mxCell id="BleKba01Y9FsckT0XKlY-25" style="edgeStyle=orthogonalEdgeStyle;rounded=0;orthogonalLoop=1;jettySize=auto;html=1;exitX=0.5;exitY=1;exitDx=0;exitDy=0;entryX=0.5;entryY=0;entryDx=0;entryDy=0;strokeColor=default;" parent="BleKba01Y9FsckT0XKlY-48" source="h0dkJCLv4vn6OwPPe1Ix-3" target="BleKba01Y9FsckT0XKlY-13" edge="1">
          <mxGeometry relative="1" as="geometry" />
        </mxCell>
        <mxCell id="BleKba01Y9FsckT0XKlY-19" style="edgeStyle=orthogonalEdgeStyle;rounded=0;orthogonalLoop=1;jettySize=auto;html=1;exitX=0;exitY=0.5;exitDx=0;exitDy=0;strokeColor=default;" parent="BleKba01Y9FsckT0XKlY-48" source="BleKba01Y9FsckT0XKlY-17" target="BleKba01Y9FsckT0XKlY-8" edge="1">
          <mxGeometry relative="1" as="geometry" />
        </mxCell>
        <mxCell id="BleKba01Y9FsckT0XKlY-21" value="X" style="edgeLabel;html=1;align=center;verticalAlign=middle;resizable=0;points=[];fontSize=25;fontColor=#FF0000;" parent="BleKba01Y9FsckT0XKlY-19" vertex="1" connectable="0">
          <mxGeometry x="0.0035" y="2" relative="1" as="geometry">
            <mxPoint x="116" y="-2" as="offset" />
          </mxGeometry>
        </mxCell>
        <mxCell id="BleKba01Y9FsckT0XKlY-20" style="edgeStyle=orthogonalEdgeStyle;rounded=0;orthogonalLoop=1;jettySize=auto;html=1;exitX=1;exitY=0.5;exitDx=0;exitDy=0;strokeColor=default;" parent="BleKba01Y9FsckT0XKlY-48" source="BleKba01Y9FsckT0XKlY-17" target="BleKba01Y9FsckT0XKlY-9" edge="1">
          <mxGeometry relative="1" as="geometry" />
        </mxCell>
        <mxCell id="BleKba01Y9FsckT0XKlY-22" value="O" style="edgeLabel;html=1;align=center;verticalAlign=middle;resizable=0;points=[];fontSize=25;" parent="BleKba01Y9FsckT0XKlY-20" vertex="1" connectable="0">
          <mxGeometry x="-0.0512" y="2" relative="1" as="geometry">
            <mxPoint y="-1" as="offset" />
          </mxGeometry>
        </mxCell>
        <mxCell id="BleKba01Y9FsckT0XKlY-17" value="판매자&lt;br&gt;여부" style="rhombus;whiteSpace=wrap;html=1;rounded=0;" parent="BleKba01Y9FsckT0XKlY-48" vertex="1">
          <mxGeometry x="370" y="270" width="80" height="80" as="geometry" />
        </mxCell>
        <mxCell id="BleKba01Y9FsckT0XKlY-18" value="" style="edgeStyle=orthogonalEdgeStyle;rounded=0;orthogonalLoop=1;jettySize=auto;html=1;strokeColor=default;" parent="BleKba01Y9FsckT0XKlY-48" source="h0dkJCLv4vn6OwPPe1Ix-3" target="BleKba01Y9FsckT0XKlY-17" edge="1">
          <mxGeometry relative="1" as="geometry" />
        </mxCell>
        <mxCell id="BleKba01Y9FsckT0XKlY-27" value="기능" style="swimlane;fontStyle=0;childLayout=stackLayout;horizontal=1;startSize=30;horizontalStack=0;resizeParent=1;resizeParentMax=0;resizeLast=0;collapsible=1;marginBottom=0;rounded=0;fillColor=#f8cecc;strokeColor=#b85450;" parent="BleKba01Y9FsckT0XKlY-48" vertex="1">
          <mxGeometry x="1010" y="140" width="140" height="60" as="geometry" />
        </mxCell>
        <mxCell id="BleKba01Y9FsckT0XKlY-28" value="구매/배송/포인트 조회" style="text;strokeColor=none;fillColor=none;align=left;verticalAlign=middle;spacingLeft=4;spacingRight=4;overflow=hidden;points=[[0,0.5],[1,0.5]];portConstraint=eastwest;rotatable=0;rounded=0;" parent="BleKba01Y9FsckT0XKlY-27" vertex="1">
          <mxGeometry y="30" width="140" height="30" as="geometry" />
        </mxCell>
        <mxCell id="BleKba01Y9FsckT0XKlY-31" style="edgeStyle=orthogonalEdgeStyle;orthogonalLoop=1;jettySize=auto;html=1;exitX=1;exitY=0.5;exitDx=0;exitDy=0;strokeColor=default;shadow=0;curved=1;endArrow=classic;endFill=1;startArrow=none;startFill=0;entryX=0;entryY=0.5;entryDx=0;entryDy=0;dashed=1;" parent="BleKba01Y9FsckT0XKlY-48" source="h0dkJCLv4vn6OwPPe1Ix-3" target="BleKba01Y9FsckT0XKlY-27" edge="1">
          <mxGeometry relative="1" as="geometry">
            <mxPoint x="980" y="180" as="targetPoint" />
          </mxGeometry>
        </mxCell>
        <mxCell id="BleKba01Y9FsckT0XKlY-62" style="edgeStyle=orthogonalEdgeStyle;curved=1;orthogonalLoop=1;jettySize=auto;html=1;exitX=0;exitY=0.5;exitDx=0;exitDy=0;entryX=1;entryY=0.25;entryDx=0;entryDy=0;shadow=0;dashed=1;fontSize=12;fontColor=#000000;startArrow=none;startFill=0;endArrow=classic;endFill=1;strokeColor=#000000;fillColor=#4D4D4D;" parent="BleKba01Y9FsckT0XKlY-48" source="BleKba01Y9FsckT0XKlY-34" target="BleKba01Y9FsckT0XKlY-57" edge="1">
          <mxGeometry relative="1" as="geometry" />
        </mxCell>
        <mxCell id="BleKba01Y9FsckT0XKlY-34" value="프로젝트(펀딩) 신청" style="whiteSpace=wrap;html=1;rounded=1;fillColor=#dae8fc;strokeColor=#6c8ebf;" parent="BleKba01Y9FsckT0XKlY-48" vertex="1">
          <mxGeometry x="360" y="690" width="120" height="60" as="geometry" />
        </mxCell>
        <mxCell id="BleKba01Y9FsckT0XKlY-42" style="edgeStyle=orthogonalEdgeStyle;rounded=0;orthogonalLoop=1;jettySize=auto;html=1;exitX=0.5;exitY=1;exitDx=0;exitDy=0;shadow=0;startArrow=none;startFill=0;endArrow=classic;endFill=1;strokeColor=default;" parent="BleKba01Y9FsckT0XKlY-48" source="BleKba01Y9FsckT0XKlY-9" target="BleKba01Y9FsckT0XKlY-34" edge="1">
          <mxGeometry relative="1" as="geometry" />
        </mxCell>
        <mxCell id="BleKba01Y9FsckT0XKlY-36" value="프로젝트 관리" style="rounded=1;whiteSpace=wrap;html=1;fillColor=#dae8fc;strokeColor=#6c8ebf;" parent="BleKba01Y9FsckT0XKlY-48" vertex="1">
          <mxGeometry x="520" y="690" width="120" height="60" as="geometry" />
        </mxCell>
        <mxCell id="BleKba01Y9FsckT0XKlY-43" style="edgeStyle=orthogonalEdgeStyle;rounded=0;orthogonalLoop=1;jettySize=auto;html=1;exitX=0.5;exitY=1;exitDx=0;exitDy=0;entryX=0.5;entryY=0;entryDx=0;entryDy=0;shadow=0;startArrow=none;startFill=0;endArrow=classic;endFill=1;strokeColor=default;" parent="BleKba01Y9FsckT0XKlY-48" source="BleKba01Y9FsckT0XKlY-9" target="BleKba01Y9FsckT0XKlY-36" edge="1">
          <mxGeometry relative="1" as="geometry" />
        </mxCell>
        <mxCell id="BleKba01Y9FsckT0XKlY-41" value="" style="curved=1;endArrow=classic;html=1;rounded=0;shadow=0;strokeColor=default;exitX=0;exitY=0.5;exitDx=0;exitDy=0;entryX=0.5;entryY=0;entryDx=0;entryDy=0;dashed=1;" parent="BleKba01Y9FsckT0XKlY-48" source="BleKba01Y9FsckT0XKlY-9" target="BleKba01Y9FsckT0XKlY-37" edge="1">
          <mxGeometry width="50" height="50" relative="1" as="geometry">
            <mxPoint x="750" y="640" as="sourcePoint" />
            <mxPoint x="800" y="590" as="targetPoint" />
            <Array as="points">
              <mxPoint x="380" y="460" />
              <mxPoint x="320" y="480" />
            </Array>
          </mxGeometry>
        </mxCell>
        <mxCell id="BleKba01Y9FsckT0XKlY-49" style="edgeStyle=orthogonalEdgeStyle;orthogonalLoop=1;jettySize=auto;html=1;exitX=0.5;exitY=1;exitDx=0;exitDy=0;shadow=0;startArrow=none;startFill=0;endArrow=classic;endFill=1;strokeColor=#000000;fillColor=#4D4D4D;rounded=0;shape=flexArrow;width=4.705882352941177;endSize=5.470588235294119;endWidth=22.698961937716263;" parent="WIyWlLk6GJQsqaUBKTNV-1" source="ru8gIQDLFA-sraK7q3Yt-2" target="BleKba01Y9FsckT0XKlY-47" edge="1">
          <mxGeometry relative="1" as="geometry">
            <mxPoint x="380" y="580" as="targetPoint" />
            <Array as="points">
              <mxPoint x="360" y="440" />
              <mxPoint x="-130" y="440" />
            </Array>
          </mxGeometry>
        </mxCell>
        <mxCell id="BleKba01Y9FsckT0XKlY-50" value="" style="curved=1;endArrow=classic;html=1;rounded=0;shadow=0;strokeColor=#000000;fillColor=#4D4D4D;entryX=0;entryY=0.5;entryDx=0;entryDy=0;exitX=0.25;exitY=0;exitDx=0;exitDy=0;dashed=1;" parent="WIyWlLk6GJQsqaUBKTNV-1" source="ru8gIQDLFA-sraK7q3Yt-1" target="BleKba01Y9FsckT0XKlY-53" edge="1">
          <mxGeometry width="50" height="50" relative="1" as="geometry">
            <mxPoint x="560" y="120" as="sourcePoint" />
            <mxPoint x="610" y="70" as="targetPoint" />
            <Array as="points">
              <mxPoint x="660" y="20" />
              <mxPoint x="700" y="-80" />
            </Array>
          </mxGeometry>
        </mxCell>
        <mxCell id="BleKba01Y9FsckT0XKlY-51" value="기능" style="swimlane;fontStyle=0;childLayout=stackLayout;horizontal=1;startSize=20;horizontalStack=0;resizeParent=1;resizeParentMax=0;resizeLast=0;collapsible=1;marginBottom=0;rounded=0;fillColor=#f8cecc;strokeColor=#b85450;" parent="WIyWlLk6GJQsqaUBKTNV-1" vertex="1">
          <mxGeometry x="750" y="-140" width="140" height="80" as="geometry" />
        </mxCell>
        <mxCell id="BleKba01Y9FsckT0XKlY-52" value="카테고리" style="text;strokeColor=none;fillColor=none;align=left;verticalAlign=middle;spacingLeft=4;spacingRight=4;overflow=hidden;points=[[0,0.5],[1,0.5]];portConstraint=eastwest;rotatable=0;rounded=0;" parent="BleKba01Y9FsckT0XKlY-51" vertex="1">
          <mxGeometry y="20" width="140" height="20" as="geometry" />
        </mxCell>
        <mxCell id="BleKba01Y9FsckT0XKlY-53" value="검색" style="text;strokeColor=none;fillColor=none;align=left;verticalAlign=middle;spacingLeft=4;spacingRight=4;overflow=hidden;points=[[0,0.5],[1,0.5]];portConstraint=eastwest;rotatable=0;rounded=0;" parent="BleKba01Y9FsckT0XKlY-51" vertex="1">
          <mxGeometry y="40" width="140" height="20" as="geometry" />
        </mxCell>
        <mxCell id="BleKba01Y9FsckT0XKlY-54" value="정렬" style="text;strokeColor=none;fillColor=none;align=left;verticalAlign=middle;spacingLeft=4;spacingRight=4;overflow=hidden;points=[[0,0.5],[1,0.5]];portConstraint=eastwest;rotatable=0;rounded=0;" parent="BleKba01Y9FsckT0XKlY-51" vertex="1">
          <mxGeometry y="60" width="140" height="20" as="geometry" />
        </mxCell>
        <mxCell id="BleKba01Y9FsckT0XKlY-56" style="edgeStyle=orthogonalEdgeStyle;orthogonalLoop=1;jettySize=auto;html=1;exitX=1;exitY=0.25;exitDx=0;exitDy=0;shadow=0;startArrow=none;startFill=0;endArrow=classic;endFill=1;strokeColor=#000000;fillColor=#4D4D4D;curved=1;dashed=1;" parent="WIyWlLk6GJQsqaUBKTNV-1" source="ablvSvCCow3iUMbK2iKx-0" edge="1">
          <mxGeometry relative="1" as="geometry">
            <mxPoint x="890" y="-90" as="targetPoint" />
            <Array as="points">
              <mxPoint x="930" y="100" />
              <mxPoint x="930" y="-90" />
            </Array>
          </mxGeometry>
        </mxCell>
        <mxCell id="2gnVvNa4o-eyoSWxKgLZ-0" value="" style="rounded=0;whiteSpace=wrap;html=1;fillColor=#f8cecc;strokeColor=#b85450;" vertex="1" parent="WIyWlLk6GJQsqaUBKTNV-1">
          <mxGeometry x="3750" y="-127.5" width="1880" height="940" as="geometry" />
        </mxCell>
        <mxCell id="2gnVvNa4o-eyoSWxKgLZ-1" value="" style="rounded=0;whiteSpace=wrap;html=1;fontSize=22;fillColor=#dae8fc;strokeColor=#6c8ebf;" vertex="1" parent="WIyWlLk6GJQsqaUBKTNV-1">
          <mxGeometry x="1580" y="-240" width="1800" height="1050" as="geometry" />
        </mxCell>
        <mxCell id="2gnVvNa4o-eyoSWxKgLZ-2" value="" style="rounded=0;whiteSpace=wrap;html=1;fontSize=18;" vertex="1" parent="WIyWlLk6GJQsqaUBKTNV-1">
          <mxGeometry x="2255" y="72.5" width="450" height="695" as="geometry" />
        </mxCell>
        <mxCell id="2gnVvNa4o-eyoSWxKgLZ-3" style="edgeStyle=orthogonalEdgeStyle;rounded=0;orthogonalLoop=1;jettySize=auto;html=1;exitX=1;exitY=0.75;exitDx=0;exitDy=0;entryX=0.5;entryY=0;entryDx=0;entryDy=0;fontSize=19;" edge="1" parent="WIyWlLk6GJQsqaUBKTNV-1" source="2gnVvNa4o-eyoSWxKgLZ-16" target="2gnVvNa4o-eyoSWxKgLZ-18">
          <mxGeometry relative="1" as="geometry" />
        </mxCell>
        <mxCell id="2gnVvNa4o-eyoSWxKgLZ-4" style="edgeStyle=orthogonalEdgeStyle;rounded=0;orthogonalLoop=1;jettySize=auto;html=1;exitX=1;exitY=0.5;exitDx=0;exitDy=0;fontSize=17;" edge="1" parent="WIyWlLk6GJQsqaUBKTNV-1" source="2gnVvNa4o-eyoSWxKgLZ-16" target="2gnVvNa4o-eyoSWxKgLZ-5">
          <mxGeometry relative="1" as="geometry" />
        </mxCell>
        <mxCell id="2gnVvNa4o-eyoSWxKgLZ-5" value="" style="rounded=0;whiteSpace=wrap;html=1;fontSize=19;" vertex="1" parent="WIyWlLk6GJQsqaUBKTNV-1">
          <mxGeometry x="5290" y="1307.5" width="780" height="740" as="geometry" />
        </mxCell>
        <mxCell id="2gnVvNa4o-eyoSWxKgLZ-6" value="리워드 선택" style="rounded=0;whiteSpace=wrap;html=1;fontSize=18;" vertex="1" parent="WIyWlLk6GJQsqaUBKTNV-1">
          <mxGeometry x="2290" y="427.5" width="120" height="60" as="geometry" />
        </mxCell>
        <mxCell id="2gnVvNa4o-eyoSWxKgLZ-7" style="edgeStyle=orthogonalEdgeStyle;rounded=0;orthogonalLoop=1;jettySize=auto;html=1;exitX=0.25;exitY=1;exitDx=0;exitDy=0;entryX=0.5;entryY=0;entryDx=0;entryDy=0;fontSize=20;" edge="1" parent="WIyWlLk6GJQsqaUBKTNV-1" source="2gnVvNa4o-eyoSWxKgLZ-16" target="2gnVvNa4o-eyoSWxKgLZ-19">
          <mxGeometry relative="1" as="geometry" />
        </mxCell>
        <mxCell id="2gnVvNa4o-eyoSWxKgLZ-8" style="edgeStyle=orthogonalEdgeStyle;rounded=0;orthogonalLoop=1;jettySize=auto;html=1;exitX=1;exitY=0.5;exitDx=0;exitDy=0;" edge="1" parent="WIyWlLk6GJQsqaUBKTNV-1" source="2gnVvNa4o-eyoSWxKgLZ-10" target="2gnVvNa4o-eyoSWxKgLZ-162">
          <mxGeometry relative="1" as="geometry" />
        </mxCell>
        <mxCell id="2gnVvNa4o-eyoSWxKgLZ-9" style="edgeStyle=orthogonalEdgeStyle;rounded=0;orthogonalLoop=1;jettySize=auto;html=1;exitX=1;exitY=0.5;exitDx=0;exitDy=0;entryX=0;entryY=0.5;entryDx=0;entryDy=0;" edge="1" parent="WIyWlLk6GJQsqaUBKTNV-1" source="2gnVvNa4o-eyoSWxKgLZ-10" target="2gnVvNa4o-eyoSWxKgLZ-163">
          <mxGeometry relative="1" as="geometry" />
        </mxCell>
        <mxCell id="2gnVvNa4o-eyoSWxKgLZ-10" value="커뮤니티" style="rounded=0;whiteSpace=wrap;html=1;fontSize=18;" vertex="1" parent="WIyWlLk6GJQsqaUBKTNV-1">
          <mxGeometry x="2290" y="617.5" width="120" height="60" as="geometry" />
        </mxCell>
        <mxCell id="2gnVvNa4o-eyoSWxKgLZ-11" style="edgeStyle=orthogonalEdgeStyle;rounded=0;orthogonalLoop=1;jettySize=auto;html=1;exitX=0.5;exitY=0;exitDx=0;exitDy=0;" edge="1" parent="WIyWlLk6GJQsqaUBKTNV-1" source="2gnVvNa4o-eyoSWxKgLZ-16" target="2gnVvNa4o-eyoSWxKgLZ-0">
          <mxGeometry relative="1" as="geometry" />
        </mxCell>
        <mxCell id="2gnVvNa4o-eyoSWxKgLZ-12" value="로그인" style="edgeLabel;html=1;align=center;verticalAlign=middle;resizable=0;points=[];fontSize=18;" connectable="0" vertex="1" parent="2gnVvNa4o-eyoSWxKgLZ-11">
          <mxGeometry x="-0.0892" y="1" relative="1" as="geometry">
            <mxPoint y="1" as="offset" />
          </mxGeometry>
        </mxCell>
        <mxCell id="2gnVvNa4o-eyoSWxKgLZ-13" style="edgeStyle=orthogonalEdgeStyle;rounded=0;orthogonalLoop=1;jettySize=auto;html=1;exitX=0;exitY=0.25;exitDx=0;exitDy=0;entryX=0.5;entryY=1;entryDx=0;entryDy=0;fontSize=17;" edge="1" parent="WIyWlLk6GJQsqaUBKTNV-1" source="2gnVvNa4o-eyoSWxKgLZ-16" target="2gnVvNa4o-eyoSWxKgLZ-128">
          <mxGeometry relative="1" as="geometry" />
        </mxCell>
        <mxCell id="2gnVvNa4o-eyoSWxKgLZ-14" style="edgeStyle=orthogonalEdgeStyle;rounded=0;orthogonalLoop=1;jettySize=auto;html=1;exitX=1;exitY=0.25;exitDx=0;exitDy=0;entryX=0.5;entryY=1;entryDx=0;entryDy=0;fontSize=17;" edge="1" parent="WIyWlLk6GJQsqaUBKTNV-1" source="2gnVvNa4o-eyoSWxKgLZ-16" target="2gnVvNa4o-eyoSWxKgLZ-129">
          <mxGeometry relative="1" as="geometry" />
        </mxCell>
        <mxCell id="2gnVvNa4o-eyoSWxKgLZ-15" style="edgeStyle=orthogonalEdgeStyle;rounded=0;orthogonalLoop=1;jettySize=auto;html=1;exitX=0;exitY=0.5;exitDx=0;exitDy=0;entryX=0.5;entryY=1;entryDx=0;entryDy=0;fontSize=18;" edge="1" parent="WIyWlLk6GJQsqaUBKTNV-1" source="2gnVvNa4o-eyoSWxKgLZ-16" target="2gnVvNa4o-eyoSWxKgLZ-1">
          <mxGeometry relative="1" as="geometry">
            <Array as="points">
              <mxPoint x="2480" y="1027.5" />
            </Array>
          </mxGeometry>
        </mxCell>
        <mxCell id="2gnVvNa4o-eyoSWxKgLZ-16" value="&lt;font style=&quot;font-size: 28px&quot;&gt;메인 페이지(!)&lt;/font&gt;" style="rounded=0;whiteSpace=wrap;html=1;" vertex="1" parent="WIyWlLk6GJQsqaUBKTNV-1">
          <mxGeometry x="4595" y="977.5" width="190" height="100" as="geometry" />
        </mxCell>
        <mxCell id="2gnVvNa4o-eyoSWxKgLZ-17" value="" style="rounded=0;whiteSpace=wrap;html=1;fontSize=15;" vertex="1" parent="WIyWlLk6GJQsqaUBKTNV-1">
          <mxGeometry x="3620" y="1307.5" width="520" height="415" as="geometry" />
        </mxCell>
        <mxCell id="2gnVvNa4o-eyoSWxKgLZ-18" value="&lt;font style=&quot;font-size: 17px&quot;&gt;공지사항&lt;/font&gt;" style="rounded=0;whiteSpace=wrap;html=1;" vertex="1" parent="WIyWlLk6GJQsqaUBKTNV-1">
          <mxGeometry x="5090" y="1307.5" width="120" height="60" as="geometry" />
        </mxCell>
        <mxCell id="2gnVvNa4o-eyoSWxKgLZ-19" value="" style="rounded=0;whiteSpace=wrap;html=1;" vertex="1" parent="WIyWlLk6GJQsqaUBKTNV-1">
          <mxGeometry x="4400" y="1307.5" width="250" height="230" as="geometry" />
        </mxCell>
        <mxCell id="2gnVvNa4o-eyoSWxKgLZ-20" value="" style="rounded=0;whiteSpace=wrap;html=1;" vertex="1" parent="WIyWlLk6GJQsqaUBKTNV-1">
          <mxGeometry x="4730" y="1307.5" width="280" height="580" as="geometry" />
        </mxCell>
        <mxCell id="2gnVvNa4o-eyoSWxKgLZ-21" value="" style="rounded=0;whiteSpace=wrap;html=1;fillColor=#f5f5f5;fontColor=#333333;strokeColor=#666666;" vertex="1" parent="WIyWlLk6GJQsqaUBKTNV-1">
          <mxGeometry x="3800" y="-22.5" width="410" height="800" as="geometry" />
        </mxCell>
        <mxCell id="2gnVvNa4o-eyoSWxKgLZ-22" style="edgeStyle=orthogonalEdgeStyle;rounded=0;orthogonalLoop=1;jettySize=auto;html=1;entryX=0;entryY=0.5;entryDx=0;entryDy=0;" edge="1" parent="WIyWlLk6GJQsqaUBKTNV-1" source="2gnVvNa4o-eyoSWxKgLZ-25" target="2gnVvNa4o-eyoSWxKgLZ-44">
          <mxGeometry relative="1" as="geometry" />
        </mxCell>
        <mxCell id="2gnVvNa4o-eyoSWxKgLZ-23" style="edgeStyle=orthogonalEdgeStyle;rounded=0;orthogonalLoop=1;jettySize=auto;html=1;exitX=0;exitY=0.5;exitDx=0;exitDy=0;entryX=0;entryY=0.5;entryDx=0;entryDy=0;" edge="1" parent="WIyWlLk6GJQsqaUBKTNV-1" source="2gnVvNa4o-eyoSWxKgLZ-25" target="2gnVvNa4o-eyoSWxKgLZ-49">
          <mxGeometry relative="1" as="geometry" />
        </mxCell>
        <mxCell id="2gnVvNa4o-eyoSWxKgLZ-24" style="edgeStyle=orthogonalEdgeStyle;rounded=0;orthogonalLoop=1;jettySize=auto;html=1;exitX=0;exitY=0.5;exitDx=0;exitDy=0;entryX=0;entryY=0.5;entryDx=0;entryDy=0;" edge="1" parent="WIyWlLk6GJQsqaUBKTNV-1" source="2gnVvNa4o-eyoSWxKgLZ-25" target="2gnVvNa4o-eyoSWxKgLZ-52">
          <mxGeometry relative="1" as="geometry" />
        </mxCell>
        <mxCell id="2gnVvNa4o-eyoSWxKgLZ-25" value="내 정보 관리" style="rounded=0;whiteSpace=wrap;html=1;" vertex="1" parent="WIyWlLk6GJQsqaUBKTNV-1">
          <mxGeometry x="3960" y="-12.5" width="90" height="40" as="geometry" />
        </mxCell>
        <mxCell id="2gnVvNa4o-eyoSWxKgLZ-26" value="" style="rounded=0;whiteSpace=wrap;html=1;fillColor=#f5f5f5;fontColor=#333333;strokeColor=#666666;" vertex="1" parent="WIyWlLk6GJQsqaUBKTNV-1">
          <mxGeometry x="4220" y="-22.5" width="410" height="510" as="geometry" />
        </mxCell>
        <mxCell id="2gnVvNa4o-eyoSWxKgLZ-27" style="edgeStyle=orthogonalEdgeStyle;rounded=0;orthogonalLoop=1;jettySize=auto;html=1;exitX=0;exitY=0.5;exitDx=0;exitDy=0;entryX=0;entryY=0.5;entryDx=0;entryDy=0;" edge="1" parent="WIyWlLk6GJQsqaUBKTNV-1" source="2gnVvNa4o-eyoSWxKgLZ-30" target="2gnVvNa4o-eyoSWxKgLZ-63">
          <mxGeometry relative="1" as="geometry" />
        </mxCell>
        <mxCell id="2gnVvNa4o-eyoSWxKgLZ-28" style="edgeStyle=orthogonalEdgeStyle;rounded=0;orthogonalLoop=1;jettySize=auto;html=1;exitX=0;exitY=0.5;exitDx=0;exitDy=0;entryX=0;entryY=0.5;entryDx=0;entryDy=0;" edge="1" parent="WIyWlLk6GJQsqaUBKTNV-1" source="2gnVvNa4o-eyoSWxKgLZ-30" target="2gnVvNa4o-eyoSWxKgLZ-65">
          <mxGeometry relative="1" as="geometry" />
        </mxCell>
        <mxCell id="2gnVvNa4o-eyoSWxKgLZ-29" style="edgeStyle=orthogonalEdgeStyle;rounded=0;orthogonalLoop=1;jettySize=auto;html=1;exitX=0;exitY=0.5;exitDx=0;exitDy=0;entryX=0;entryY=0.5;entryDx=0;entryDy=0;" edge="1" parent="WIyWlLk6GJQsqaUBKTNV-1" source="2gnVvNa4o-eyoSWxKgLZ-30" target="2gnVvNa4o-eyoSWxKgLZ-83">
          <mxGeometry relative="1" as="geometry" />
        </mxCell>
        <mxCell id="2gnVvNa4o-eyoSWxKgLZ-30" value="후원한 펀딩 내역" style="rounded=0;whiteSpace=wrap;html=1;" vertex="1" parent="WIyWlLk6GJQsqaUBKTNV-1">
          <mxGeometry x="4380" y="-12.5" width="90" height="40" as="geometry" />
        </mxCell>
        <mxCell id="2gnVvNa4o-eyoSWxKgLZ-31" value="" style="rounded=0;whiteSpace=wrap;html=1;fillColor=#f5f5f5;fontColor=#333333;strokeColor=#666666;" vertex="1" parent="WIyWlLk6GJQsqaUBKTNV-1">
          <mxGeometry x="4650" y="-22.5" width="410" height="370" as="geometry" />
        </mxCell>
        <mxCell id="2gnVvNa4o-eyoSWxKgLZ-32" style="edgeStyle=orthogonalEdgeStyle;rounded=0;orthogonalLoop=1;jettySize=auto;html=1;exitX=0;exitY=0.5;exitDx=0;exitDy=0;entryX=0;entryY=0.5;entryDx=0;entryDy=0;" edge="1" parent="WIyWlLk6GJQsqaUBKTNV-1" source="2gnVvNa4o-eyoSWxKgLZ-36" target="2gnVvNa4o-eyoSWxKgLZ-76">
          <mxGeometry relative="1" as="geometry" />
        </mxCell>
        <mxCell id="2gnVvNa4o-eyoSWxKgLZ-33" style="edgeStyle=orthogonalEdgeStyle;rounded=0;orthogonalLoop=1;jettySize=auto;html=1;exitX=0;exitY=0.5;exitDx=0;exitDy=0;entryX=0;entryY=0.5;entryDx=0;entryDy=0;" edge="1" parent="WIyWlLk6GJQsqaUBKTNV-1" source="2gnVvNa4o-eyoSWxKgLZ-36" target="2gnVvNa4o-eyoSWxKgLZ-78">
          <mxGeometry relative="1" as="geometry" />
        </mxCell>
        <mxCell id="2gnVvNa4o-eyoSWxKgLZ-34" style="edgeStyle=orthogonalEdgeStyle;rounded=0;orthogonalLoop=1;jettySize=auto;html=1;exitX=0;exitY=0.5;exitDx=0;exitDy=0;entryX=0;entryY=0.5;entryDx=0;entryDy=0;" edge="1" parent="WIyWlLk6GJQsqaUBKTNV-1" source="2gnVvNa4o-eyoSWxKgLZ-36" target="2gnVvNa4o-eyoSWxKgLZ-79">
          <mxGeometry relative="1" as="geometry" />
        </mxCell>
        <mxCell id="2gnVvNa4o-eyoSWxKgLZ-35" style="edgeStyle=orthogonalEdgeStyle;rounded=0;orthogonalLoop=1;jettySize=auto;html=1;exitX=0;exitY=0.5;exitDx=0;exitDy=0;entryX=0;entryY=0.5;entryDx=0;entryDy=0;" edge="1" parent="WIyWlLk6GJQsqaUBKTNV-1" source="2gnVvNa4o-eyoSWxKgLZ-36" target="2gnVvNa4o-eyoSWxKgLZ-80">
          <mxGeometry relative="1" as="geometry" />
        </mxCell>
        <mxCell id="2gnVvNa4o-eyoSWxKgLZ-36" value="내 프로젝트 관리" style="rounded=0;whiteSpace=wrap;html=1;" vertex="1" parent="WIyWlLk6GJQsqaUBKTNV-1">
          <mxGeometry x="4810" y="-12.5" width="90" height="40" as="geometry" />
        </mxCell>
        <mxCell id="2gnVvNa4o-eyoSWxKgLZ-37" value="" style="rounded=0;whiteSpace=wrap;html=1;fillColor=#f5f5f5;fontColor=#333333;strokeColor=#666666;" vertex="1" parent="WIyWlLk6GJQsqaUBKTNV-1">
          <mxGeometry x="5070" y="-22.5" width="410" height="180" as="geometry" />
        </mxCell>
        <mxCell id="2gnVvNa4o-eyoSWxKgLZ-38" style="edgeStyle=orthogonalEdgeStyle;rounded=0;orthogonalLoop=1;jettySize=auto;html=1;exitX=0.25;exitY=1;exitDx=0;exitDy=0;entryX=0.5;entryY=0;entryDx=0;entryDy=0;" edge="1" parent="WIyWlLk6GJQsqaUBKTNV-1" source="2gnVvNa4o-eyoSWxKgLZ-40" target="2gnVvNa4o-eyoSWxKgLZ-87">
          <mxGeometry relative="1" as="geometry" />
        </mxCell>
        <mxCell id="2gnVvNa4o-eyoSWxKgLZ-39" style="edgeStyle=orthogonalEdgeStyle;rounded=0;orthogonalLoop=1;jettySize=auto;html=1;exitX=0.75;exitY=1;exitDx=0;exitDy=0;entryX=0.5;entryY=0;entryDx=0;entryDy=0;" edge="1" parent="WIyWlLk6GJQsqaUBKTNV-1" source="2gnVvNa4o-eyoSWxKgLZ-40" target="2gnVvNa4o-eyoSWxKgLZ-88">
          <mxGeometry relative="1" as="geometry" />
        </mxCell>
        <mxCell id="2gnVvNa4o-eyoSWxKgLZ-40" value="포인트" style="rounded=0;whiteSpace=wrap;html=1;" vertex="1" parent="WIyWlLk6GJQsqaUBKTNV-1">
          <mxGeometry x="5230" y="-12.5" width="90" height="40" as="geometry" />
        </mxCell>
        <mxCell id="2gnVvNa4o-eyoSWxKgLZ-41" style="edgeStyle=orthogonalEdgeStyle;rounded=0;orthogonalLoop=1;jettySize=auto;html=1;exitX=1;exitY=0.25;exitDx=0;exitDy=0;entryX=0;entryY=0.5;entryDx=0;entryDy=0;" edge="1" parent="WIyWlLk6GJQsqaUBKTNV-1" source="2gnVvNa4o-eyoSWxKgLZ-44" target="2gnVvNa4o-eyoSWxKgLZ-56">
          <mxGeometry relative="1" as="geometry" />
        </mxCell>
        <mxCell id="2gnVvNa4o-eyoSWxKgLZ-42" style="edgeStyle=orthogonalEdgeStyle;rounded=0;orthogonalLoop=1;jettySize=auto;html=1;exitX=1;exitY=0.5;exitDx=0;exitDy=0;entryX=0;entryY=0.5;entryDx=0;entryDy=0;" edge="1" parent="WIyWlLk6GJQsqaUBKTNV-1" source="2gnVvNa4o-eyoSWxKgLZ-44" target="2gnVvNa4o-eyoSWxKgLZ-55">
          <mxGeometry relative="1" as="geometry" />
        </mxCell>
        <mxCell id="2gnVvNa4o-eyoSWxKgLZ-43" style="edgeStyle=orthogonalEdgeStyle;rounded=0;orthogonalLoop=1;jettySize=auto;html=1;exitX=1;exitY=0.75;exitDx=0;exitDy=0;entryX=0;entryY=0.5;entryDx=0;entryDy=0;" edge="1" parent="WIyWlLk6GJQsqaUBKTNV-1" source="2gnVvNa4o-eyoSWxKgLZ-44" target="2gnVvNa4o-eyoSWxKgLZ-57">
          <mxGeometry relative="1" as="geometry" />
        </mxCell>
        <mxCell id="2gnVvNa4o-eyoSWxKgLZ-44" value="프로필" style="rounded=0;whiteSpace=wrap;html=1;" vertex="1" parent="WIyWlLk6GJQsqaUBKTNV-1">
          <mxGeometry x="3850" y="142.5" width="90" height="40" as="geometry" />
        </mxCell>
        <mxCell id="2gnVvNa4o-eyoSWxKgLZ-45" style="edgeStyle=orthogonalEdgeStyle;rounded=0;orthogonalLoop=1;jettySize=auto;html=1;exitX=1;exitY=0;exitDx=0;exitDy=0;entryX=0;entryY=0.5;entryDx=0;entryDy=0;" edge="1" parent="WIyWlLk6GJQsqaUBKTNV-1" source="2gnVvNa4o-eyoSWxKgLZ-49" target="2gnVvNa4o-eyoSWxKgLZ-58">
          <mxGeometry relative="1" as="geometry" />
        </mxCell>
        <mxCell id="2gnVvNa4o-eyoSWxKgLZ-46" value="비밀번호" style="edgeStyle=orthogonalEdgeStyle;rounded=0;orthogonalLoop=1;jettySize=auto;html=1;exitX=1;exitY=0.25;exitDx=0;exitDy=0;entryX=0;entryY=0.5;entryDx=0;entryDy=0;" edge="1" parent="WIyWlLk6GJQsqaUBKTNV-1" source="2gnVvNa4o-eyoSWxKgLZ-49" target="2gnVvNa4o-eyoSWxKgLZ-59">
          <mxGeometry x="0.5152" relative="1" as="geometry">
            <mxPoint as="offset" />
          </mxGeometry>
        </mxCell>
        <mxCell id="2gnVvNa4o-eyoSWxKgLZ-47" style="edgeStyle=orthogonalEdgeStyle;rounded=0;orthogonalLoop=1;jettySize=auto;html=1;exitX=1;exitY=0.75;exitDx=0;exitDy=0;entryX=0;entryY=0.5;entryDx=0;entryDy=0;" edge="1" parent="WIyWlLk6GJQsqaUBKTNV-1" source="2gnVvNa4o-eyoSWxKgLZ-49" target="2gnVvNa4o-eyoSWxKgLZ-60">
          <mxGeometry relative="1" as="geometry" />
        </mxCell>
        <mxCell id="2gnVvNa4o-eyoSWxKgLZ-48" value="비밀번호" style="edgeStyle=orthogonalEdgeStyle;rounded=0;orthogonalLoop=1;jettySize=auto;html=1;exitX=1;exitY=1;exitDx=0;exitDy=0;entryX=0;entryY=0.5;entryDx=0;entryDy=0;" edge="1" parent="WIyWlLk6GJQsqaUBKTNV-1" source="2gnVvNa4o-eyoSWxKgLZ-49" target="2gnVvNa4o-eyoSWxKgLZ-61">
          <mxGeometry x="0.6098" relative="1" as="geometry">
            <mxPoint as="offset" />
          </mxGeometry>
        </mxCell>
        <mxCell id="2gnVvNa4o-eyoSWxKgLZ-49" value="계정" style="rounded=0;whiteSpace=wrap;html=1;" vertex="1" parent="WIyWlLk6GJQsqaUBKTNV-1">
          <mxGeometry x="3850" y="397.5" width="90" height="40" as="geometry" />
        </mxCell>
        <mxCell id="2gnVvNa4o-eyoSWxKgLZ-50" style="edgeStyle=orthogonalEdgeStyle;rounded=0;orthogonalLoop=1;jettySize=auto;html=1;exitX=1;exitY=0.25;exitDx=0;exitDy=0;entryX=0;entryY=0.5;entryDx=0;entryDy=0;" edge="1" parent="WIyWlLk6GJQsqaUBKTNV-1" source="2gnVvNa4o-eyoSWxKgLZ-52" target="2gnVvNa4o-eyoSWxKgLZ-53">
          <mxGeometry relative="1" as="geometry" />
        </mxCell>
        <mxCell id="2gnVvNa4o-eyoSWxKgLZ-51" style="edgeStyle=orthogonalEdgeStyle;rounded=0;orthogonalLoop=1;jettySize=auto;html=1;exitX=1;exitY=0.75;exitDx=0;exitDy=0;" edge="1" parent="WIyWlLk6GJQsqaUBKTNV-1" source="2gnVvNa4o-eyoSWxKgLZ-52" target="2gnVvNa4o-eyoSWxKgLZ-54">
          <mxGeometry relative="1" as="geometry" />
        </mxCell>
        <mxCell id="2gnVvNa4o-eyoSWxKgLZ-52" value="배송지" style="rounded=0;whiteSpace=wrap;html=1;" vertex="1" parent="WIyWlLk6GJQsqaUBKTNV-1">
          <mxGeometry x="3850" y="647.5" width="90" height="40" as="geometry" />
        </mxCell>
        <mxCell id="2gnVvNa4o-eyoSWxKgLZ-53" value="주소 추가" style="rounded=0;whiteSpace=wrap;html=1;" vertex="1" parent="WIyWlLk6GJQsqaUBKTNV-1">
          <mxGeometry x="4050" y="627.5" width="70" height="30" as="geometry" />
        </mxCell>
        <mxCell id="2gnVvNa4o-eyoSWxKgLZ-54" value="주소 삭제" style="rounded=0;whiteSpace=wrap;html=1;" vertex="1" parent="WIyWlLk6GJQsqaUBKTNV-1">
          <mxGeometry x="4050" y="677.5" width="70" height="30" as="geometry" />
        </mxCell>
        <mxCell id="2gnVvNa4o-eyoSWxKgLZ-55" value="이름 변경" style="rounded=0;whiteSpace=wrap;html=1;" vertex="1" parent="WIyWlLk6GJQsqaUBKTNV-1">
          <mxGeometry x="4070" y="147.5" width="70" height="30" as="geometry" />
        </mxCell>
        <mxCell id="2gnVvNa4o-eyoSWxKgLZ-56" value="프로필 사진 설정" style="rounded=0;whiteSpace=wrap;html=1;" vertex="1" parent="WIyWlLk6GJQsqaUBKTNV-1">
          <mxGeometry x="4070" y="97.5" width="70" height="30" as="geometry" />
        </mxCell>
        <mxCell id="2gnVvNa4o-eyoSWxKgLZ-57" value="소개글 작성" style="rounded=0;whiteSpace=wrap;html=1;" vertex="1" parent="WIyWlLk6GJQsqaUBKTNV-1">
          <mxGeometry x="4070" y="197.5" width="70" height="30" as="geometry" />
        </mxCell>
        <mxCell id="2gnVvNa4o-eyoSWxKgLZ-58" value="이메일 변경" style="rounded=0;whiteSpace=wrap;html=1;" vertex="1" parent="WIyWlLk6GJQsqaUBKTNV-1">
          <mxGeometry x="4070" y="327.5" width="70" height="30" as="geometry" />
        </mxCell>
        <mxCell id="2gnVvNa4o-eyoSWxKgLZ-59" value="비밀번호 변경" style="rounded=0;whiteSpace=wrap;html=1;" vertex="1" parent="WIyWlLk6GJQsqaUBKTNV-1">
          <mxGeometry x="4070" y="377.5" width="70" height="30" as="geometry" />
        </mxCell>
        <mxCell id="2gnVvNa4o-eyoSWxKgLZ-60" value="연락처 변경" style="rounded=0;whiteSpace=wrap;html=1;" vertex="1" parent="WIyWlLk6GJQsqaUBKTNV-1">
          <mxGeometry x="4070" y="427.5" width="70" height="30" as="geometry" />
        </mxCell>
        <mxCell id="2gnVvNa4o-eyoSWxKgLZ-61" value="회원 탈퇴" style="rounded=0;whiteSpace=wrap;html=1;" vertex="1" parent="WIyWlLk6GJQsqaUBKTNV-1">
          <mxGeometry x="4070" y="477.5" width="70" height="30" as="geometry" />
        </mxCell>
        <mxCell id="2gnVvNa4o-eyoSWxKgLZ-62" style="edgeStyle=orthogonalEdgeStyle;rounded=0;orthogonalLoop=1;jettySize=auto;html=1;exitX=1;exitY=0.5;exitDx=0;exitDy=0;entryX=0;entryY=0.5;entryDx=0;entryDy=0;" edge="1" parent="WIyWlLk6GJQsqaUBKTNV-1" source="2gnVvNa4o-eyoSWxKgLZ-63" target="2gnVvNa4o-eyoSWxKgLZ-72">
          <mxGeometry relative="1" as="geometry" />
        </mxCell>
        <mxCell id="2gnVvNa4o-eyoSWxKgLZ-63" value="진행 중인 펀딩" style="rounded=0;whiteSpace=wrap;html=1;" vertex="1" parent="WIyWlLk6GJQsqaUBKTNV-1">
          <mxGeometry x="4250" y="87.5" width="90" height="40" as="geometry" />
        </mxCell>
        <mxCell id="2gnVvNa4o-eyoSWxKgLZ-64" style="edgeStyle=orthogonalEdgeStyle;rounded=0;orthogonalLoop=1;jettySize=auto;html=1;exitX=1;exitY=0.5;exitDx=0;exitDy=0;entryX=0;entryY=0.5;entryDx=0;entryDy=0;" edge="1" parent="WIyWlLk6GJQsqaUBKTNV-1" source="2gnVvNa4o-eyoSWxKgLZ-65" target="2gnVvNa4o-eyoSWxKgLZ-68">
          <mxGeometry relative="1" as="geometry" />
        </mxCell>
        <mxCell id="2gnVvNa4o-eyoSWxKgLZ-65" value="종료된 펀딩" style="rounded=0;whiteSpace=wrap;html=1;" vertex="1" parent="WIyWlLk6GJQsqaUBKTNV-1">
          <mxGeometry x="4250" y="242.5" width="90" height="40" as="geometry" />
        </mxCell>
        <mxCell id="2gnVvNa4o-eyoSWxKgLZ-66" value="후기 작성" style="rounded=0;whiteSpace=wrap;html=1;" vertex="1" parent="WIyWlLk6GJQsqaUBKTNV-1">
          <mxGeometry x="4530" y="247.5" width="80" height="30" as="geometry" />
        </mxCell>
        <mxCell id="2gnVvNa4o-eyoSWxKgLZ-67" style="edgeStyle=orthogonalEdgeStyle;rounded=0;orthogonalLoop=1;jettySize=auto;html=1;exitX=1;exitY=0.5;exitDx=0;exitDy=0;entryX=0;entryY=0.5;entryDx=0;entryDy=0;" edge="1" parent="WIyWlLk6GJQsqaUBKTNV-1" source="2gnVvNa4o-eyoSWxKgLZ-68" target="2gnVvNa4o-eyoSWxKgLZ-66">
          <mxGeometry relative="1" as="geometry" />
        </mxCell>
        <mxCell id="2gnVvNa4o-eyoSWxKgLZ-68" value="-펀딩 정보-&lt;br&gt;&lt;br&gt;결제 완료일&lt;br&gt;후원 번호&lt;br&gt;펀딩 제목" style="rounded=0;whiteSpace=wrap;html=1;" vertex="1" parent="WIyWlLk6GJQsqaUBKTNV-1">
          <mxGeometry x="4410" y="207.5" width="90" height="110" as="geometry" />
        </mxCell>
        <mxCell id="2gnVvNa4o-eyoSWxKgLZ-69" style="edgeStyle=orthogonalEdgeStyle;rounded=0;orthogonalLoop=1;jettySize=auto;html=1;exitX=1;exitY=0.25;exitDx=0;exitDy=0;entryX=0.5;entryY=0;entryDx=0;entryDy=0;" edge="1" parent="WIyWlLk6GJQsqaUBKTNV-1" source="2gnVvNa4o-eyoSWxKgLZ-72" target="2gnVvNa4o-eyoSWxKgLZ-73">
          <mxGeometry relative="1" as="geometry" />
        </mxCell>
        <mxCell id="2gnVvNa4o-eyoSWxKgLZ-70" style="edgeStyle=orthogonalEdgeStyle;rounded=0;orthogonalLoop=1;jettySize=auto;html=1;exitX=1;exitY=0.5;exitDx=0;exitDy=0;entryX=0;entryY=0.5;entryDx=0;entryDy=0;" edge="1" parent="WIyWlLk6GJQsqaUBKTNV-1" source="2gnVvNa4o-eyoSWxKgLZ-72" target="2gnVvNa4o-eyoSWxKgLZ-74">
          <mxGeometry relative="1" as="geometry" />
        </mxCell>
        <mxCell id="2gnVvNa4o-eyoSWxKgLZ-71" style="edgeStyle=orthogonalEdgeStyle;rounded=0;orthogonalLoop=1;jettySize=auto;html=1;exitX=1;exitY=0.75;exitDx=0;exitDy=0;entryX=0.5;entryY=1;entryDx=0;entryDy=0;" edge="1" parent="WIyWlLk6GJQsqaUBKTNV-1" source="2gnVvNa4o-eyoSWxKgLZ-72" target="2gnVvNa4o-eyoSWxKgLZ-75">
          <mxGeometry relative="1" as="geometry" />
        </mxCell>
        <mxCell id="2gnVvNa4o-eyoSWxKgLZ-72" value="-펀딩 정보-&lt;br&gt;&lt;br&gt;결제 예정일&lt;br&gt;후원 번호&lt;br&gt;펀딩 제목" style="rounded=0;whiteSpace=wrap;html=1;" vertex="1" parent="WIyWlLk6GJQsqaUBKTNV-1">
          <mxGeometry x="4410" y="52.5" width="90" height="110" as="geometry" />
        </mxCell>
        <mxCell id="2gnVvNa4o-eyoSWxKgLZ-73" value="주소 변경" style="rounded=0;whiteSpace=wrap;html=1;" vertex="1" parent="WIyWlLk6GJQsqaUBKTNV-1">
          <mxGeometry x="4530" y="52.5" width="80" height="30" as="geometry" />
        </mxCell>
        <mxCell id="2gnVvNa4o-eyoSWxKgLZ-74" value="펀딩 종류 변경" style="rounded=0;whiteSpace=wrap;html=1;" vertex="1" parent="WIyWlLk6GJQsqaUBKTNV-1">
          <mxGeometry x="4530" y="92.5" width="80" height="30" as="geometry" />
        </mxCell>
        <mxCell id="2gnVvNa4o-eyoSWxKgLZ-75" value="펀딩 취소" style="rounded=0;whiteSpace=wrap;html=1;" vertex="1" parent="WIyWlLk6GJQsqaUBKTNV-1">
          <mxGeometry x="4530" y="132.5" width="80" height="30" as="geometry" />
        </mxCell>
        <mxCell id="2gnVvNa4o-eyoSWxKgLZ-76" value="전체" style="rounded=0;whiteSpace=wrap;html=1;" vertex="1" parent="WIyWlLk6GJQsqaUBKTNV-1">
          <mxGeometry x="4690" y="67.5" width="90" height="40" as="geometry" />
        </mxCell>
        <mxCell id="2gnVvNa4o-eyoSWxKgLZ-77" style="edgeStyle=orthogonalEdgeStyle;rounded=0;orthogonalLoop=1;jettySize=auto;html=1;entryX=0;entryY=0.5;entryDx=0;entryDy=0;" edge="1" parent="WIyWlLk6GJQsqaUBKTNV-1" source="2gnVvNa4o-eyoSWxKgLZ-78" target="2gnVvNa4o-eyoSWxKgLZ-81">
          <mxGeometry relative="1" as="geometry" />
        </mxCell>
        <mxCell id="2gnVvNa4o-eyoSWxKgLZ-78" value="공개 예정" style="rounded=0;whiteSpace=wrap;html=1;" vertex="1" parent="WIyWlLk6GJQsqaUBKTNV-1">
          <mxGeometry x="4690" y="132.5" width="90" height="40" as="geometry" />
        </mxCell>
        <mxCell id="2gnVvNa4o-eyoSWxKgLZ-79" value="진행 중" style="rounded=0;whiteSpace=wrap;html=1;" vertex="1" parent="WIyWlLk6GJQsqaUBKTNV-1">
          <mxGeometry x="4690" y="192.5" width="90" height="40" as="geometry" />
        </mxCell>
        <mxCell id="2gnVvNa4o-eyoSWxKgLZ-80" value="종료" style="rounded=0;whiteSpace=wrap;html=1;" vertex="1" parent="WIyWlLk6GJQsqaUBKTNV-1">
          <mxGeometry x="4690" y="252.5" width="90" height="40" as="geometry" />
        </mxCell>
        <mxCell id="2gnVvNa4o-eyoSWxKgLZ-81" value="오픈 예정일 변경" style="rounded=0;whiteSpace=wrap;html=1;" vertex="1" parent="WIyWlLk6GJQsqaUBKTNV-1">
          <mxGeometry x="4930" y="137.5" width="90" height="30" as="geometry" />
        </mxCell>
        <mxCell id="2gnVvNa4o-eyoSWxKgLZ-82" style="edgeStyle=orthogonalEdgeStyle;rounded=0;orthogonalLoop=1;jettySize=auto;html=1;exitX=1;exitY=0.5;exitDx=0;exitDy=0;" edge="1" parent="WIyWlLk6GJQsqaUBKTNV-1" source="2gnVvNa4o-eyoSWxKgLZ-83" target="2gnVvNa4o-eyoSWxKgLZ-86">
          <mxGeometry relative="1" as="geometry" />
        </mxCell>
        <mxCell id="2gnVvNa4o-eyoSWxKgLZ-83" value="관심 프로젝트" style="rounded=0;whiteSpace=wrap;html=1;" vertex="1" parent="WIyWlLk6GJQsqaUBKTNV-1">
          <mxGeometry x="4250" y="387.5" width="90" height="40" as="geometry" />
        </mxCell>
        <mxCell id="2gnVvNa4o-eyoSWxKgLZ-84" value="관심 취소" style="rounded=0;whiteSpace=wrap;html=1;" vertex="1" parent="WIyWlLk6GJQsqaUBKTNV-1">
          <mxGeometry x="4530" y="392.5" width="80" height="30" as="geometry" />
        </mxCell>
        <mxCell id="2gnVvNa4o-eyoSWxKgLZ-85" style="edgeStyle=orthogonalEdgeStyle;rounded=0;orthogonalLoop=1;jettySize=auto;html=1;exitX=1;exitY=0.5;exitDx=0;exitDy=0;entryX=0;entryY=0.5;entryDx=0;entryDy=0;" edge="1" parent="WIyWlLk6GJQsqaUBKTNV-1" source="2gnVvNa4o-eyoSWxKgLZ-86" target="2gnVvNa4o-eyoSWxKgLZ-84">
          <mxGeometry relative="1" as="geometry" />
        </mxCell>
        <mxCell id="2gnVvNa4o-eyoSWxKgLZ-86" value="-프로젝트 정보-&lt;br&gt;&lt;br&gt;펀딩 마감일&lt;br&gt;결제 예정일&lt;br&gt;펀딩 제목" style="rounded=0;whiteSpace=wrap;html=1;" vertex="1" parent="WIyWlLk6GJQsqaUBKTNV-1">
          <mxGeometry x="4410" y="352.5" width="90" height="110" as="geometry" />
        </mxCell>
        <mxCell id="2gnVvNa4o-eyoSWxKgLZ-87" value="전체 포인트" style="rounded=0;whiteSpace=wrap;html=1;" vertex="1" parent="WIyWlLk6GJQsqaUBKTNV-1">
          <mxGeometry x="5160" y="92.5" width="90" height="40" as="geometry" />
        </mxCell>
        <mxCell id="2gnVvNa4o-eyoSWxKgLZ-88" value="포인트 충전" style="rounded=0;whiteSpace=wrap;html=1;" vertex="1" parent="WIyWlLk6GJQsqaUBKTNV-1">
          <mxGeometry x="5300" y="92.5" width="90" height="40" as="geometry" />
        </mxCell>
        <mxCell id="2gnVvNa4o-eyoSWxKgLZ-89" value="회원탈퇴" style="rounded=0;whiteSpace=wrap;html=1;" vertex="1" parent="WIyWlLk6GJQsqaUBKTNV-1">
          <mxGeometry x="5490" y="-22.5" width="90" height="40" as="geometry" />
        </mxCell>
        <mxCell id="2gnVvNa4o-eyoSWxKgLZ-90" value="&lt;font style=&quot;font-size: 20px&quot;&gt;마이페이지&lt;/font&gt;" style="text;html=1;strokeColor=none;fillColor=none;align=center;verticalAlign=middle;whiteSpace=wrap;rounded=0;" vertex="1" parent="WIyWlLk6GJQsqaUBKTNV-1">
          <mxGeometry x="3770" y="-92.5" width="110" height="30" as="geometry" />
        </mxCell>
        <mxCell id="2gnVvNa4o-eyoSWxKgLZ-91" value="로그인" style="text;html=1;strokeColor=none;fillColor=none;align=center;verticalAlign=middle;whiteSpace=wrap;rounded=0;fontSize=20;" vertex="1" parent="WIyWlLk6GJQsqaUBKTNV-1">
          <mxGeometry x="4390" y="1305" width="80" height="30" as="geometry" />
        </mxCell>
        <mxCell id="2gnVvNa4o-eyoSWxKgLZ-92" value="아이디 찾기" style="rounded=0;whiteSpace=wrap;html=1;fontSize=17;fillColor=#f5f5f5;fontColor=#333333;strokeColor=#666666;" vertex="1" parent="WIyWlLk6GJQsqaUBKTNV-1">
          <mxGeometry x="4465" y="1367.5" width="120" height="60" as="geometry" />
        </mxCell>
        <mxCell id="2gnVvNa4o-eyoSWxKgLZ-93" value="비밀번호 찾기" style="rounded=0;whiteSpace=wrap;html=1;fontSize=17;fillColor=#f5f5f5;fontColor=#333333;strokeColor=#666666;" vertex="1" parent="WIyWlLk6GJQsqaUBKTNV-1">
          <mxGeometry x="4465" y="1447.5" width="120" height="60" as="geometry" />
        </mxCell>
        <mxCell id="2gnVvNa4o-eyoSWxKgLZ-94" style="edgeStyle=orthogonalEdgeStyle;rounded=0;orthogonalLoop=1;jettySize=auto;html=1;exitX=0.5;exitY=1;exitDx=0;exitDy=0;entryX=0.5;entryY=0;entryDx=0;entryDy=0;fontSize=15;" edge="1" parent="WIyWlLk6GJQsqaUBKTNV-1" source="2gnVvNa4o-eyoSWxKgLZ-95" target="2gnVvNa4o-eyoSWxKgLZ-98">
          <mxGeometry relative="1" as="geometry" />
        </mxCell>
        <mxCell id="2gnVvNa4o-eyoSWxKgLZ-95" value="후기 게시판" style="rounded=0;whiteSpace=wrap;html=1;fontSize=15;" vertex="1" parent="WIyWlLk6GJQsqaUBKTNV-1">
          <mxGeometry x="3845" y="1347.5" width="120" height="60" as="geometry" />
        </mxCell>
        <mxCell id="2gnVvNa4o-eyoSWxKgLZ-96" style="edgeStyle=orthogonalEdgeStyle;rounded=0;orthogonalLoop=1;jettySize=auto;html=1;exitX=0.5;exitY=1;exitDx=0;exitDy=0;entryX=0.5;entryY=0;entryDx=0;entryDy=0;fontSize=15;" edge="1" parent="WIyWlLk6GJQsqaUBKTNV-1" source="2gnVvNa4o-eyoSWxKgLZ-98" target="2gnVvNa4o-eyoSWxKgLZ-103">
          <mxGeometry relative="1" as="geometry" />
        </mxCell>
        <mxCell id="2gnVvNa4o-eyoSWxKgLZ-97" value="로그인" style="edgeLabel;html=1;align=center;verticalAlign=middle;resizable=0;points=[];fontSize=15;" connectable="0" vertex="1" parent="2gnVvNa4o-eyoSWxKgLZ-96">
          <mxGeometry x="-0.0785" y="-1" relative="1" as="geometry">
            <mxPoint as="offset" />
          </mxGeometry>
        </mxCell>
        <mxCell id="2gnVvNa4o-eyoSWxKgLZ-98" value="" style="rounded=0;whiteSpace=wrap;html=1;fillColor=#f5f5f5;fontColor=#333333;strokeColor=#666666;fontSize=15;" vertex="1" parent="WIyWlLk6GJQsqaUBKTNV-1">
          <mxGeometry x="3720" y="1437.5" width="370" height="100" as="geometry" />
        </mxCell>
        <mxCell id="2gnVvNa4o-eyoSWxKgLZ-99" value="펀딩 카테고리" style="rounded=0;whiteSpace=wrap;html=1;fontSize=15;" vertex="1" parent="WIyWlLk6GJQsqaUBKTNV-1">
          <mxGeometry x="3730" y="1467.5" width="80" height="40" as="geometry" />
        </mxCell>
        <mxCell id="2gnVvNa4o-eyoSWxKgLZ-100" value="제목" style="rounded=0;whiteSpace=wrap;html=1;fontSize=15;" vertex="1" parent="WIyWlLk6GJQsqaUBKTNV-1">
          <mxGeometry x="3820" y="1467.5" width="80" height="40" as="geometry" />
        </mxCell>
        <mxCell id="2gnVvNa4o-eyoSWxKgLZ-101" value="작성자" style="rounded=0;whiteSpace=wrap;html=1;fontSize=15;" vertex="1" parent="WIyWlLk6GJQsqaUBKTNV-1">
          <mxGeometry x="3910" y="1467.5" width="80" height="40" as="geometry" />
        </mxCell>
        <mxCell id="2gnVvNa4o-eyoSWxKgLZ-102" value="작성일자" style="rounded=0;whiteSpace=wrap;html=1;fontSize=15;" vertex="1" parent="WIyWlLk6GJQsqaUBKTNV-1">
          <mxGeometry x="4000" y="1467.5" width="80" height="40" as="geometry" />
        </mxCell>
        <mxCell id="2gnVvNa4o-eyoSWxKgLZ-103" value="글 작성하기" style="rounded=0;whiteSpace=wrap;html=1;fontSize=15;" vertex="1" parent="WIyWlLk6GJQsqaUBKTNV-1">
          <mxGeometry x="3845" y="1607.5" width="120" height="60" as="geometry" />
        </mxCell>
        <mxCell id="2gnVvNa4o-eyoSWxKgLZ-104" value="&lt;font style=&quot;font-size: 19px&quot;&gt;커뮤니티&lt;/font&gt;" style="text;html=1;strokeColor=none;fillColor=none;align=center;verticalAlign=middle;whiteSpace=wrap;rounded=0;fontSize=17;" vertex="1" parent="WIyWlLk6GJQsqaUBKTNV-1">
          <mxGeometry x="3620" y="1307.5" width="110" height="45" as="geometry" />
        </mxCell>
        <mxCell id="2gnVvNa4o-eyoSWxKgLZ-105" value="" style="rounded=0;whiteSpace=wrap;html=1;fillColor=#f5f5f5;fontColor=#333333;strokeColor=#666666;" vertex="1" parent="WIyWlLk6GJQsqaUBKTNV-1">
          <mxGeometry x="5730" y="1407.5" width="300" height="540" as="geometry" />
        </mxCell>
        <mxCell id="2gnVvNa4o-eyoSWxKgLZ-106" value="" style="rounded=0;whiteSpace=wrap;html=1;fillColor=#f5f5f5;fontColor=#333333;strokeColor=#666666;" vertex="1" parent="WIyWlLk6GJQsqaUBKTNV-1">
          <mxGeometry x="5310" y="1407.5" width="410" height="220" as="geometry" />
        </mxCell>
        <mxCell id="2gnVvNa4o-eyoSWxKgLZ-107" style="edgeStyle=orthogonalEdgeStyle;rounded=0;orthogonalLoop=1;jettySize=auto;html=1;exitX=0;exitY=0.5;exitDx=0;exitDy=0;entryX=0.5;entryY=0;entryDx=0;entryDy=0;" edge="1" parent="WIyWlLk6GJQsqaUBKTNV-1" source="2gnVvNa4o-eyoSWxKgLZ-110" target="2gnVvNa4o-eyoSWxKgLZ-115">
          <mxGeometry relative="1" as="geometry" />
        </mxCell>
        <mxCell id="2gnVvNa4o-eyoSWxKgLZ-108" style="edgeStyle=orthogonalEdgeStyle;rounded=0;orthogonalLoop=1;jettySize=auto;html=1;exitX=0.5;exitY=1;exitDx=0;exitDy=0;" edge="1" parent="WIyWlLk6GJQsqaUBKTNV-1" source="2gnVvNa4o-eyoSWxKgLZ-110" target="2gnVvNa4o-eyoSWxKgLZ-114">
          <mxGeometry relative="1" as="geometry" />
        </mxCell>
        <mxCell id="2gnVvNa4o-eyoSWxKgLZ-109" style="edgeStyle=orthogonalEdgeStyle;rounded=0;orthogonalLoop=1;jettySize=auto;html=1;exitX=1;exitY=0.5;exitDx=0;exitDy=0;entryX=0.5;entryY=0;entryDx=0;entryDy=0;" edge="1" parent="WIyWlLk6GJQsqaUBKTNV-1" source="2gnVvNa4o-eyoSWxKgLZ-110" target="2gnVvNa4o-eyoSWxKgLZ-116">
          <mxGeometry relative="1" as="geometry" />
        </mxCell>
        <mxCell id="2gnVvNa4o-eyoSWxKgLZ-110" value="FAQ" style="rounded=0;whiteSpace=wrap;html=1;" vertex="1" parent="WIyWlLk6GJQsqaUBKTNV-1">
          <mxGeometry x="5455" y="1427.5" width="120" height="60" as="geometry" />
        </mxCell>
        <mxCell id="2gnVvNa4o-eyoSWxKgLZ-111" value="로그인" style="edgeStyle=orthogonalEdgeStyle;rounded=0;orthogonalLoop=1;jettySize=auto;html=1;entryX=0.5;entryY=0;entryDx=0;entryDy=0;" edge="1" parent="WIyWlLk6GJQsqaUBKTNV-1" source="2gnVvNa4o-eyoSWxKgLZ-112" target="2gnVvNa4o-eyoSWxKgLZ-118">
          <mxGeometry relative="1" as="geometry" />
        </mxCell>
        <mxCell id="2gnVvNa4o-eyoSWxKgLZ-112" value="1:1 문의" style="rounded=0;whiteSpace=wrap;html=1;" vertex="1" parent="WIyWlLk6GJQsqaUBKTNV-1">
          <mxGeometry x="5820" y="1427.5" width="120" height="60" as="geometry" />
        </mxCell>
        <mxCell id="2gnVvNa4o-eyoSWxKgLZ-113" value="Q&amp;amp;A 상위 메뉴로&amp;nbsp;&lt;br&gt;고객센터 추가" style="rounded=1;whiteSpace=wrap;html=1;fillColor=#dae8fc;strokeColor=#6c8ebf;" vertex="1" parent="WIyWlLk6GJQsqaUBKTNV-1">
          <mxGeometry x="5420" y="1327.5" width="120" height="60" as="geometry" />
        </mxCell>
        <mxCell id="2gnVvNa4o-eyoSWxKgLZ-114" value="결제" style="rounded=0;whiteSpace=wrap;html=1;" vertex="1" parent="WIyWlLk6GJQsqaUBKTNV-1">
          <mxGeometry x="5470" y="1557.5" width="90" height="40" as="geometry" />
        </mxCell>
        <mxCell id="2gnVvNa4o-eyoSWxKgLZ-115" value="펀딩 관련" style="rounded=0;whiteSpace=wrap;html=1;" vertex="1" parent="WIyWlLk6GJQsqaUBKTNV-1">
          <mxGeometry x="5330" y="1557.5" width="90" height="40" as="geometry" />
        </mxCell>
        <mxCell id="2gnVvNa4o-eyoSWxKgLZ-116" value="사이트 이용 관련" style="rounded=0;whiteSpace=wrap;html=1;" vertex="1" parent="WIyWlLk6GJQsqaUBKTNV-1">
          <mxGeometry x="5600" y="1557.5" width="90" height="40" as="geometry" />
        </mxCell>
        <mxCell id="2gnVvNa4o-eyoSWxKgLZ-117" style="edgeStyle=orthogonalEdgeStyle;rounded=0;orthogonalLoop=1;jettySize=auto;html=1;exitX=0.5;exitY=1;exitDx=0;exitDy=0;entryX=0.5;entryY=0;entryDx=0;entryDy=0;" edge="1" parent="WIyWlLk6GJQsqaUBKTNV-1" source="2gnVvNa4o-eyoSWxKgLZ-118" target="2gnVvNa4o-eyoSWxKgLZ-120">
          <mxGeometry relative="1" as="geometry" />
        </mxCell>
        <mxCell id="2gnVvNa4o-eyoSWxKgLZ-118" value="1:1 문의하기" style="rounded=0;whiteSpace=wrap;html=1;" vertex="1" parent="WIyWlLk6GJQsqaUBKTNV-1">
          <mxGeometry x="5835" y="1537.5" width="90" height="40" as="geometry" />
        </mxCell>
        <mxCell id="2gnVvNa4o-eyoSWxKgLZ-119" value="참고 사이트 : W.CONCEPT.&lt;br&gt;https://www.wconcept.co.kr/CustomerCenter/Counseling" style="rounded=1;whiteSpace=wrap;html=1;fillColor=#dae8fc;strokeColor=#6c8ebf;" vertex="1" parent="WIyWlLk6GJQsqaUBKTNV-1">
          <mxGeometry x="5710" y="1967.5" width="340" height="60" as="geometry" />
        </mxCell>
        <mxCell id="2gnVvNa4o-eyoSWxKgLZ-120" value="" style="rounded=0;whiteSpace=wrap;html=1;fillColor=#fff2cc;strokeColor=#d6b656;" vertex="1" parent="WIyWlLk6GJQsqaUBKTNV-1">
          <mxGeometry x="5780" y="1607.5" width="200" height="330" as="geometry" />
        </mxCell>
        <mxCell id="2gnVvNa4o-eyoSWxKgLZ-121" value="회원 아이디 (자동입력)" style="rounded=0;whiteSpace=wrap;html=1;" vertex="1" parent="WIyWlLk6GJQsqaUBKTNV-1">
          <mxGeometry x="5820" y="1617.5" width="120" height="40" as="geometry" />
        </mxCell>
        <mxCell id="2gnVvNa4o-eyoSWxKgLZ-122" value="문의유형" style="rounded=0;whiteSpace=wrap;html=1;" vertex="1" parent="WIyWlLk6GJQsqaUBKTNV-1">
          <mxGeometry x="5820" y="1687.5" width="120" height="40" as="geometry" />
        </mxCell>
        <mxCell id="2gnVvNa4o-eyoSWxKgLZ-123" value="답변 알림 받기&lt;br&gt;(휴대폰 / 이메일)" style="rounded=0;whiteSpace=wrap;html=1;" vertex="1" parent="WIyWlLk6GJQsqaUBKTNV-1">
          <mxGeometry x="5820" y="1752.5" width="120" height="40" as="geometry" />
        </mxCell>
        <mxCell id="2gnVvNa4o-eyoSWxKgLZ-124" value="제목" style="rounded=0;whiteSpace=wrap;html=1;" vertex="1" parent="WIyWlLk6GJQsqaUBKTNV-1">
          <mxGeometry x="5820" y="1817.5" width="120" height="40" as="geometry" />
        </mxCell>
        <mxCell id="2gnVvNa4o-eyoSWxKgLZ-125" value="문의내용" style="rounded=0;whiteSpace=wrap;html=1;" vertex="1" parent="WIyWlLk6GJQsqaUBKTNV-1">
          <mxGeometry x="5820" y="1887.5" width="120" height="40" as="geometry" />
        </mxCell>
        <mxCell id="2gnVvNa4o-eyoSWxKgLZ-126" value="참고 사이트 : 크라우디&lt;br&gt;https://www.ycrowdy.com/crowdy/help" style="rounded=1;whiteSpace=wrap;html=1;fillColor=#dae8fc;strokeColor=#6c8ebf;" vertex="1" parent="WIyWlLk6GJQsqaUBKTNV-1">
          <mxGeometry x="5350" y="1647.5" width="340" height="60" as="geometry" />
        </mxCell>
        <mxCell id="2gnVvNa4o-eyoSWxKgLZ-127" value="고객센터" style="text;html=1;strokeColor=none;fillColor=none;align=center;verticalAlign=middle;whiteSpace=wrap;rounded=0;fontSize=17;" vertex="1" parent="WIyWlLk6GJQsqaUBKTNV-1">
          <mxGeometry x="5300" y="1327.5" width="80" height="30" as="geometry" />
        </mxCell>
        <mxCell id="2gnVvNa4o-eyoSWxKgLZ-128" value="" style="rounded=0;whiteSpace=wrap;html=1;" vertex="1" parent="WIyWlLk6GJQsqaUBKTNV-1">
          <mxGeometry x="3410" y="147.5" width="280" height="665" as="geometry" />
        </mxCell>
        <mxCell id="2gnVvNa4o-eyoSWxKgLZ-129" value="&lt;font style=&quot;font-size: 22px&quot;&gt;사이트 소개&lt;/font&gt;" style="rounded=0;whiteSpace=wrap;html=1;" vertex="1" parent="WIyWlLk6GJQsqaUBKTNV-1">
          <mxGeometry x="5700" y="752.5" width="120" height="60" as="geometry" />
        </mxCell>
        <mxCell id="2gnVvNa4o-eyoSWxKgLZ-130" value="회원가입" style="text;html=1;strokeColor=none;fillColor=none;align=center;verticalAlign=middle;whiteSpace=wrap;rounded=0;fontSize=18;" vertex="1" parent="WIyWlLk6GJQsqaUBKTNV-1">
          <mxGeometry x="4740" y="1317.5" width="100" height="30" as="geometry" />
        </mxCell>
        <mxCell id="2gnVvNa4o-eyoSWxKgLZ-131" value="사용할 아이디 입력" style="rounded=0;whiteSpace=wrap;html=1;fontSize=17;fillColor=#f5f5f5;fontColor=#333333;strokeColor=#666666;" vertex="1" parent="WIyWlLk6GJQsqaUBKTNV-1">
          <mxGeometry x="4790" y="1377.5" width="160" height="60" as="geometry" />
        </mxCell>
        <mxCell id="2gnVvNa4o-eyoSWxKgLZ-132" value="사용할 비밀번호 입력" style="rounded=0;whiteSpace=wrap;html=1;fontSize=17;fillColor=#f5f5f5;fontColor=#333333;strokeColor=#666666;" vertex="1" parent="WIyWlLk6GJQsqaUBKTNV-1">
          <mxGeometry x="4790" y="1457.5" width="160" height="60" as="geometry" />
        </mxCell>
        <mxCell id="2gnVvNa4o-eyoSWxKgLZ-133" value="사용할 닉네임 입력" style="rounded=0;whiteSpace=wrap;html=1;fontSize=17;fillColor=#f5f5f5;fontColor=#333333;strokeColor=#666666;" vertex="1" parent="WIyWlLk6GJQsqaUBKTNV-1">
          <mxGeometry x="4790" y="1537.5" width="160" height="60" as="geometry" />
        </mxCell>
        <mxCell id="2gnVvNa4o-eyoSWxKgLZ-134" value="프로젝트 신청" style="text;html=1;strokeColor=none;fillColor=none;align=center;verticalAlign=middle;whiteSpace=wrap;rounded=0;fontSize=17;" vertex="1" parent="WIyWlLk6GJQsqaUBKTNV-1">
          <mxGeometry x="3420" y="157.5" width="110" height="30" as="geometry" />
        </mxCell>
        <mxCell id="2gnVvNa4o-eyoSWxKgLZ-135" value="" style="rounded=0;whiteSpace=wrap;html=1;fontSize=17;fillColor=#f5f5f5;fontColor=#333333;strokeColor=#666666;" vertex="1" parent="WIyWlLk6GJQsqaUBKTNV-1">
          <mxGeometry x="4220" y="497.5" width="410" height="280" as="geometry" />
        </mxCell>
        <mxCell id="2gnVvNa4o-eyoSWxKgLZ-136" value="판매자 신청" style="rounded=0;whiteSpace=wrap;html=1;" vertex="1" parent="WIyWlLk6GJQsqaUBKTNV-1">
          <mxGeometry x="4230" y="507.5" width="90" height="40" as="geometry" />
        </mxCell>
        <mxCell id="2gnVvNa4o-eyoSWxKgLZ-137" value="판매자 닉네임 &lt;br&gt;설정" style="rounded=0;whiteSpace=wrap;html=1;" vertex="1" parent="WIyWlLk6GJQsqaUBKTNV-1">
          <mxGeometry x="4230" y="622.5" width="90" height="40" as="geometry" />
        </mxCell>
        <mxCell id="2gnVvNa4o-eyoSWxKgLZ-138" value="판매자 입금 은행&lt;br&gt;설정" style="rounded=0;whiteSpace=wrap;html=1;" vertex="1" parent="WIyWlLk6GJQsqaUBKTNV-1">
          <mxGeometry x="4380" y="622.5" width="90" height="40" as="geometry" />
        </mxCell>
        <mxCell id="2gnVvNa4o-eyoSWxKgLZ-139" value="판매자 입금 계좌&lt;br&gt;설정" style="rounded=0;whiteSpace=wrap;html=1;" vertex="1" parent="WIyWlLk6GJQsqaUBKTNV-1">
          <mxGeometry x="4520" y="622.5" width="90" height="40" as="geometry" />
        </mxCell>
        <mxCell id="2gnVvNa4o-eyoSWxKgLZ-140" value="&lt;span style=&quot;font-size: 17px&quot;&gt;카테고리 선택&lt;/span&gt;" style="rounded=0;whiteSpace=wrap;html=1;fillColor=#f5f5f5;fontColor=#333333;strokeColor=#666666;" vertex="1" parent="WIyWlLk6GJQsqaUBKTNV-1">
          <mxGeometry x="3495" y="215" width="120" height="60" as="geometry" />
        </mxCell>
        <mxCell id="2gnVvNa4o-eyoSWxKgLZ-141" value="&lt;span style=&quot;font-size: 17px&quot;&gt;프로젝트 명 설정&lt;/span&gt;" style="rounded=0;whiteSpace=wrap;html=1;fillColor=#f5f5f5;fontColor=#333333;strokeColor=#666666;" vertex="1" parent="WIyWlLk6GJQsqaUBKTNV-1">
          <mxGeometry x="3495" y="295" width="120" height="60" as="geometry" />
        </mxCell>
        <mxCell id="2gnVvNa4o-eyoSWxKgLZ-142" value="&lt;span style=&quot;font-size: 17px&quot;&gt;프로젝트 요약글&lt;br&gt;작성&lt;br&gt;&lt;/span&gt;" style="rounded=0;whiteSpace=wrap;html=1;fillColor=#f5f5f5;fontColor=#333333;strokeColor=#666666;" vertex="1" parent="WIyWlLk6GJQsqaUBKTNV-1">
          <mxGeometry x="3495" y="375" width="120" height="60" as="geometry" />
        </mxCell>
        <mxCell id="2gnVvNa4o-eyoSWxKgLZ-143" value="&lt;span style=&quot;font-size: 17px&quot;&gt;목표 금액 설정&lt;br&gt;&lt;/span&gt;" style="rounded=0;whiteSpace=wrap;html=1;fillColor=#f5f5f5;fontColor=#333333;strokeColor=#666666;" vertex="1" parent="WIyWlLk6GJQsqaUBKTNV-1">
          <mxGeometry x="3495" y="455" width="120" height="60" as="geometry" />
        </mxCell>
        <mxCell id="2gnVvNa4o-eyoSWxKgLZ-144" value="&lt;span style=&quot;font-size: 17px&quot;&gt;프로젝트/펀딩&lt;br&gt;시작일 설정&lt;br&gt;&lt;/span&gt;" style="rounded=0;whiteSpace=wrap;html=1;fillColor=#f5f5f5;fontColor=#333333;strokeColor=#666666;" vertex="1" parent="WIyWlLk6GJQsqaUBKTNV-1">
          <mxGeometry x="3495" y="540" width="120" height="60" as="geometry" />
        </mxCell>
        <mxCell id="2gnVvNa4o-eyoSWxKgLZ-145" value="&lt;span style=&quot;font-size: 17px&quot;&gt;펀딩 마감일&lt;br&gt;제작 시작일 설정&lt;br&gt;&lt;/span&gt;" style="rounded=0;whiteSpace=wrap;html=1;fillColor=#f5f5f5;fontColor=#333333;strokeColor=#666666;" vertex="1" parent="WIyWlLk6GJQsqaUBKTNV-1">
          <mxGeometry x="3495" y="625" width="120" height="60" as="geometry" />
        </mxCell>
        <mxCell id="2gnVvNa4o-eyoSWxKgLZ-146" value="&lt;span style=&quot;font-size: 17px&quot;&gt;프로젝트 마감일&lt;br&gt;설정&lt;br&gt;&lt;/span&gt;" style="rounded=0;whiteSpace=wrap;html=1;fillColor=#f5f5f5;fontColor=#333333;strokeColor=#666666;" vertex="1" parent="WIyWlLk6GJQsqaUBKTNV-1">
          <mxGeometry x="3495" y="710" width="120" height="60" as="geometry" />
        </mxCell>
        <mxCell id="2gnVvNa4o-eyoSWxKgLZ-147" style="edgeStyle=orthogonalEdgeStyle;rounded=0;orthogonalLoop=1;jettySize=auto;html=1;exitX=0.75;exitY=1;exitDx=0;exitDy=0;fontSize=20;" edge="1" parent="WIyWlLk6GJQsqaUBKTNV-1" source="2gnVvNa4o-eyoSWxKgLZ-16" target="2gnVvNa4o-eyoSWxKgLZ-20">
          <mxGeometry relative="1" as="geometry" />
        </mxCell>
        <mxCell id="2gnVvNa4o-eyoSWxKgLZ-148" value="&lt;font style=&quot;font-size: 17px;&quot;&gt;상세페이지&lt;/font&gt;" style="text;html=1;strokeColor=none;fillColor=none;align=center;verticalAlign=middle;whiteSpace=wrap;rounded=0;fontSize=17;" vertex="1" parent="WIyWlLk6GJQsqaUBKTNV-1">
          <mxGeometry x="2250" y="77.5" width="140" height="45" as="geometry" />
        </mxCell>
        <mxCell id="2gnVvNa4o-eyoSWxKgLZ-149" value="결제페이지" style="rounded=0;whiteSpace=wrap;html=1;fontSize=18;" vertex="1" parent="WIyWlLk6GJQsqaUBKTNV-1">
          <mxGeometry x="2490" y="427.5" width="110" height="60" as="geometry" />
        </mxCell>
        <mxCell id="2gnVvNa4o-eyoSWxKgLZ-150" value="펀딩" style="text;html=1;strokeColor=none;fillColor=none;align=center;verticalAlign=middle;whiteSpace=wrap;rounded=0;fontSize=17;" vertex="1" parent="WIyWlLk6GJQsqaUBKTNV-1">
          <mxGeometry x="1570" y="-207.5" width="110" height="30" as="geometry" />
        </mxCell>
        <mxCell id="2gnVvNa4o-eyoSWxKgLZ-151" style="edgeStyle=orthogonalEdgeStyle;rounded=0;orthogonalLoop=1;jettySize=auto;html=1;exitX=0;exitY=0.75;exitDx=0;exitDy=0;fontSize=19;" edge="1" parent="WIyWlLk6GJQsqaUBKTNV-1" source="2gnVvNa4o-eyoSWxKgLZ-16" target="2gnVvNa4o-eyoSWxKgLZ-17">
          <mxGeometry relative="1" as="geometry" />
        </mxCell>
        <mxCell id="2gnVvNa4o-eyoSWxKgLZ-152" style="edgeStyle=orthogonalEdgeStyle;rounded=0;orthogonalLoop=1;jettySize=auto;html=1;exitX=0.5;exitY=1;exitDx=0;exitDy=0;fontSize=15;" edge="1" parent="WIyWlLk6GJQsqaUBKTNV-1" source="2gnVvNa4o-eyoSWxKgLZ-153" target="2gnVvNa4o-eyoSWxKgLZ-157">
          <mxGeometry relative="1" as="geometry" />
        </mxCell>
        <mxCell id="2gnVvNa4o-eyoSWxKgLZ-153" value="&lt;span style=&quot;font-size: 17px&quot;&gt;펀딩 진행 중&lt;br&gt;(기본)&lt;br&gt;&lt;/span&gt;" style="rounded=0;whiteSpace=wrap;html=1;" vertex="1" parent="WIyWlLk6GJQsqaUBKTNV-1">
          <mxGeometry x="2420" y="-151.5" width="120" height="59" as="geometry" />
        </mxCell>
        <mxCell id="2gnVvNa4o-eyoSWxKgLZ-154" value="&lt;font style=&quot;font-size: 17px&quot;&gt;마감된 펀딩&lt;/font&gt;" style="rounded=0;whiteSpace=wrap;html=1;" vertex="1" parent="WIyWlLk6GJQsqaUBKTNV-1">
          <mxGeometry x="3010" y="-136.5" width="120" height="60" as="geometry" />
        </mxCell>
        <mxCell id="2gnVvNa4o-eyoSWxKgLZ-155" value="좋아요&lt;br&gt;(+집계)" style="rounded=0;whiteSpace=wrap;html=1;fontSize=18;" vertex="1" parent="WIyWlLk6GJQsqaUBKTNV-1">
          <mxGeometry x="2290" y="522.5" width="120" height="60" as="geometry" />
        </mxCell>
        <mxCell id="2gnVvNa4o-eyoSWxKgLZ-156" style="edgeStyle=orthogonalEdgeStyle;rounded=0;orthogonalLoop=1;jettySize=auto;html=1;exitX=0.5;exitY=1;exitDx=0;exitDy=0;entryX=0.5;entryY=0;entryDx=0;entryDy=0;fontSize=15;" edge="1" parent="WIyWlLk6GJQsqaUBKTNV-1" source="2gnVvNa4o-eyoSWxKgLZ-157" target="2gnVvNa4o-eyoSWxKgLZ-2">
          <mxGeometry relative="1" as="geometry" />
        </mxCell>
        <mxCell id="2gnVvNa4o-eyoSWxKgLZ-157" value="&lt;span style=&quot;font-size: 17px&quot;&gt;카테고리&lt;br&gt;&lt;/span&gt;" style="rounded=0;whiteSpace=wrap;html=1;" vertex="1" parent="WIyWlLk6GJQsqaUBKTNV-1">
          <mxGeometry x="2300" y="-47.5" width="360" height="60" as="geometry" />
        </mxCell>
        <mxCell id="2gnVvNa4o-eyoSWxKgLZ-158" style="edgeStyle=orthogonalEdgeStyle;rounded=0;orthogonalLoop=1;jettySize=auto;html=1;exitX=1;exitY=0.5;exitDx=0;exitDy=0;entryX=0;entryY=0.5;entryDx=0;entryDy=0;fontSize=15;" edge="1" parent="WIyWlLk6GJQsqaUBKTNV-1" source="2gnVvNa4o-eyoSWxKgLZ-6" target="2gnVvNa4o-eyoSWxKgLZ-149">
          <mxGeometry relative="1" as="geometry" />
        </mxCell>
        <mxCell id="2gnVvNa4o-eyoSWxKgLZ-159" style="edgeStyle=orthogonalEdgeStyle;rounded=0;orthogonalLoop=1;jettySize=auto;html=1;exitX=0.5;exitY=1;exitDx=0;exitDy=0;entryX=0.5;entryY=0;entryDx=0;entryDy=0;fontSize=15;" edge="1" parent="WIyWlLk6GJQsqaUBKTNV-1" source="2gnVvNa4o-eyoSWxKgLZ-160" target="2gnVvNa4o-eyoSWxKgLZ-6">
          <mxGeometry relative="1" as="geometry" />
        </mxCell>
        <mxCell id="2gnVvNa4o-eyoSWxKgLZ-160" value="펀딩하기" style="rounded=0;whiteSpace=wrap;html=1;fontSize=18;" vertex="1" parent="WIyWlLk6GJQsqaUBKTNV-1">
          <mxGeometry x="2290" y="332.5" width="120" height="60" as="geometry" />
        </mxCell>
        <mxCell id="2gnVvNa4o-eyoSWxKgLZ-161" value="&lt;span style=&quot;font-size: 17px&quot;&gt;펀딩 예정&lt;br&gt;&lt;/span&gt;" style="rounded=0;whiteSpace=wrap;html=1;" vertex="1" parent="WIyWlLk6GJQsqaUBKTNV-1">
          <mxGeometry x="1810" y="-136.5" width="120" height="60" as="geometry" />
        </mxCell>
        <mxCell id="2gnVvNa4o-eyoSWxKgLZ-162" value="진행상황" style="rounded=0;whiteSpace=wrap;html=1;fontSize=18;" vertex="1" parent="WIyWlLk6GJQsqaUBKTNV-1">
          <mxGeometry x="2500" y="617.5" width="110" height="60" as="geometry" />
        </mxCell>
        <mxCell id="2gnVvNa4o-eyoSWxKgLZ-163" value="문의" style="rounded=0;whiteSpace=wrap;html=1;fontSize=18;" vertex="1" parent="WIyWlLk6GJQsqaUBKTNV-1">
          <mxGeometry x="2500" y="687.5" width="110" height="60" as="geometry" />
        </mxCell>
        <mxCell id="2gnVvNa4o-eyoSWxKgLZ-164" value="기능" style="swimlane;fontStyle=0;childLayout=stackLayout;horizontal=1;startSize=30;horizontalStack=0;resizeParent=1;resizeParentMax=0;resizeLast=0;collapsible=1;marginBottom=0;fontSize=18;" vertex="1" parent="WIyWlLk6GJQsqaUBKTNV-1">
          <mxGeometry x="2405" y="92.5" width="140" height="180" as="geometry" />
        </mxCell>
        <mxCell id="2gnVvNa4o-eyoSWxKgLZ-165" value="남은 일수(시간)" style="text;strokeColor=none;fillColor=none;align=left;verticalAlign=middle;spacingLeft=4;spacingRight=4;overflow=hidden;points=[[0,0.5],[1,0.5]];portConstraint=eastwest;rotatable=0;fontSize=18;" vertex="1" parent="2gnVvNa4o-eyoSWxKgLZ-164">
          <mxGeometry y="30" width="140" height="30" as="geometry" />
        </mxCell>
        <mxCell id="2gnVvNa4o-eyoSWxKgLZ-166" value="후원자수" style="text;strokeColor=none;fillColor=none;align=left;verticalAlign=middle;spacingLeft=4;spacingRight=4;overflow=hidden;points=[[0,0.5],[1,0.5]];portConstraint=eastwest;rotatable=0;fontSize=18;" vertex="1" parent="2gnVvNa4o-eyoSWxKgLZ-164">
          <mxGeometry y="60" width="140" height="30" as="geometry" />
        </mxCell>
        <mxCell id="2gnVvNa4o-eyoSWxKgLZ-167" value="모인금액" style="text;strokeColor=none;fillColor=none;align=left;verticalAlign=middle;spacingLeft=4;spacingRight=4;overflow=hidden;points=[[0,0.5],[1,0.5]];portConstraint=eastwest;rotatable=0;fontSize=18;" vertex="1" parent="2gnVvNa4o-eyoSWxKgLZ-164">
          <mxGeometry y="90" width="140" height="30" as="geometry" />
        </mxCell>
        <mxCell id="2gnVvNa4o-eyoSWxKgLZ-168" value="달성률" style="text;strokeColor=none;fillColor=none;align=left;verticalAlign=middle;spacingLeft=4;spacingRight=4;overflow=hidden;points=[[0,0.5],[1,0.5]];portConstraint=eastwest;rotatable=0;fontSize=18;" vertex="1" parent="2gnVvNa4o-eyoSWxKgLZ-164">
          <mxGeometry y="120" width="140" height="30" as="geometry" />
        </mxCell>
        <mxCell id="2gnVvNa4o-eyoSWxKgLZ-169" value="판매자정보" style="text;strokeColor=none;fillColor=none;align=left;verticalAlign=middle;spacingLeft=4;spacingRight=4;overflow=hidden;points=[[0,0.5],[1,0.5]];portConstraint=eastwest;rotatable=0;fontSize=18;" vertex="1" parent="2gnVvNa4o-eyoSWxKgLZ-164">
          <mxGeometry y="150" width="140" height="30" as="geometry" />
        </mxCell>
        <mxCell id="2gnVvNa4o-eyoSWxKgLZ-170" value="" style="rounded=0;whiteSpace=wrap;html=1;fontSize=18;" vertex="1" parent="WIyWlLk6GJQsqaUBKTNV-1">
          <mxGeometry x="2840" y="5" width="450" height="695" as="geometry" />
        </mxCell>
        <mxCell id="2gnVvNa4o-eyoSWxKgLZ-171" style="edgeStyle=orthogonalEdgeStyle;rounded=0;orthogonalLoop=1;jettySize=auto;html=1;exitX=1;exitY=0.5;exitDx=0;exitDy=0;" edge="1" parent="WIyWlLk6GJQsqaUBKTNV-1" source="2gnVvNa4o-eyoSWxKgLZ-173" target="2gnVvNa4o-eyoSWxKgLZ-175">
          <mxGeometry relative="1" as="geometry" />
        </mxCell>
        <mxCell id="2gnVvNa4o-eyoSWxKgLZ-172" style="edgeStyle=orthogonalEdgeStyle;rounded=0;orthogonalLoop=1;jettySize=auto;html=1;exitX=1;exitY=0.5;exitDx=0;exitDy=0;entryX=0;entryY=0.5;entryDx=0;entryDy=0;" edge="1" parent="WIyWlLk6GJQsqaUBKTNV-1" source="2gnVvNa4o-eyoSWxKgLZ-173" target="2gnVvNa4o-eyoSWxKgLZ-176">
          <mxGeometry relative="1" as="geometry" />
        </mxCell>
        <mxCell id="2gnVvNa4o-eyoSWxKgLZ-173" value="커뮤니티" style="rounded=0;whiteSpace=wrap;html=1;fontSize=18;" vertex="1" parent="WIyWlLk6GJQsqaUBKTNV-1">
          <mxGeometry x="2925" y="347.5" width="120" height="60" as="geometry" />
        </mxCell>
        <mxCell id="2gnVvNa4o-eyoSWxKgLZ-174" value="&lt;font style=&quot;font-size: 17px;&quot;&gt;상세페이지&lt;/font&gt;" style="text;html=1;strokeColor=none;fillColor=none;align=center;verticalAlign=middle;whiteSpace=wrap;rounded=0;fontSize=17;" vertex="1" parent="WIyWlLk6GJQsqaUBKTNV-1">
          <mxGeometry x="2860" y="80" width="140" height="45" as="geometry" />
        </mxCell>
        <mxCell id="2gnVvNa4o-eyoSWxKgLZ-175" value="진행상황" style="rounded=0;whiteSpace=wrap;html=1;fontSize=18;" vertex="1" parent="WIyWlLk6GJQsqaUBKTNV-1">
          <mxGeometry x="3135" y="347.5" width="110" height="60" as="geometry" />
        </mxCell>
        <mxCell id="2gnVvNa4o-eyoSWxKgLZ-176" value="문의" style="rounded=0;whiteSpace=wrap;html=1;fontSize=18;" vertex="1" parent="WIyWlLk6GJQsqaUBKTNV-1">
          <mxGeometry x="3135" y="417.5" width="110" height="60" as="geometry" />
        </mxCell>
        <mxCell id="2gnVvNa4o-eyoSWxKgLZ-177" value="기능" style="swimlane;fontStyle=0;childLayout=stackLayout;horizontal=1;startSize=30;horizontalStack=0;resizeParent=1;resizeParentMax=0;resizeLast=0;collapsible=1;marginBottom=0;fontSize=18;" vertex="1" parent="WIyWlLk6GJQsqaUBKTNV-1">
          <mxGeometry x="3015" y="95" width="140" height="180" as="geometry" />
        </mxCell>
        <mxCell id="2gnVvNa4o-eyoSWxKgLZ-178" value="후원자수" style="text;strokeColor=none;fillColor=none;align=left;verticalAlign=middle;spacingLeft=4;spacingRight=4;overflow=hidden;points=[[0,0.5],[1,0.5]];portConstraint=eastwest;rotatable=0;fontSize=18;" vertex="1" parent="2gnVvNa4o-eyoSWxKgLZ-177">
          <mxGeometry y="30" width="140" height="30" as="geometry" />
        </mxCell>
        <mxCell id="2gnVvNa4o-eyoSWxKgLZ-179" value="모인금액" style="text;strokeColor=none;fillColor=none;align=left;verticalAlign=middle;spacingLeft=4;spacingRight=4;overflow=hidden;points=[[0,0.5],[1,0.5]];portConstraint=eastwest;rotatable=0;fontSize=18;" vertex="1" parent="2gnVvNa4o-eyoSWxKgLZ-177">
          <mxGeometry y="60" width="140" height="30" as="geometry" />
        </mxCell>
        <mxCell id="2gnVvNa4o-eyoSWxKgLZ-180" value="달성률" style="text;strokeColor=none;fillColor=none;align=left;verticalAlign=middle;spacingLeft=4;spacingRight=4;overflow=hidden;points=[[0,0.5],[1,0.5]];portConstraint=eastwest;rotatable=0;fontSize=18;" vertex="1" parent="2gnVvNa4o-eyoSWxKgLZ-177">
          <mxGeometry y="90" width="140" height="30" as="geometry" />
        </mxCell>
        <mxCell id="2gnVvNa4o-eyoSWxKgLZ-181" value="판매자정보" style="text;strokeColor=none;fillColor=none;align=left;verticalAlign=middle;spacingLeft=4;spacingRight=4;overflow=hidden;points=[[0,0.5],[1,0.5]];portConstraint=eastwest;rotatable=0;fontSize=18;" vertex="1" parent="2gnVvNa4o-eyoSWxKgLZ-177">
          <mxGeometry y="120" width="140" height="30" as="geometry" />
        </mxCell>
        <mxCell id="2gnVvNa4o-eyoSWxKgLZ-182" value="좋아요" style="text;strokeColor=none;fillColor=none;align=left;verticalAlign=middle;spacingLeft=4;spacingRight=4;overflow=hidden;points=[[0,0.5],[1,0.5]];portConstraint=eastwest;rotatable=0;fontSize=18;" vertex="1" parent="2gnVvNa4o-eyoSWxKgLZ-177">
          <mxGeometry y="150" width="140" height="30" as="geometry" />
        </mxCell>
        <mxCell id="2gnVvNa4o-eyoSWxKgLZ-183" value="" style="rounded=0;whiteSpace=wrap;html=1;fontSize=18;" vertex="1" parent="WIyWlLk6GJQsqaUBKTNV-1">
          <mxGeometry x="1640" y="-25" width="450" height="695" as="geometry" />
        </mxCell>
        <mxCell id="2gnVvNa4o-eyoSWxKgLZ-184" style="edgeStyle=orthogonalEdgeStyle;rounded=0;orthogonalLoop=1;jettySize=auto;html=1;exitX=1;exitY=0.5;exitDx=0;exitDy=0;" edge="1" parent="WIyWlLk6GJQsqaUBKTNV-1" source="2gnVvNa4o-eyoSWxKgLZ-186" target="2gnVvNa4o-eyoSWxKgLZ-189">
          <mxGeometry relative="1" as="geometry" />
        </mxCell>
        <mxCell id="2gnVvNa4o-eyoSWxKgLZ-185" style="edgeStyle=orthogonalEdgeStyle;rounded=0;orthogonalLoop=1;jettySize=auto;html=1;exitX=1;exitY=0.5;exitDx=0;exitDy=0;entryX=0;entryY=0.5;entryDx=0;entryDy=0;" edge="1" parent="WIyWlLk6GJQsqaUBKTNV-1" source="2gnVvNa4o-eyoSWxKgLZ-186" target="2gnVvNa4o-eyoSWxKgLZ-190">
          <mxGeometry relative="1" as="geometry" />
        </mxCell>
        <mxCell id="2gnVvNa4o-eyoSWxKgLZ-186" value="커뮤니티" style="rounded=0;whiteSpace=wrap;html=1;fontSize=18;" vertex="1" parent="WIyWlLk6GJQsqaUBKTNV-1">
          <mxGeometry x="1700" y="343.5" width="120" height="60" as="geometry" />
        </mxCell>
        <mxCell id="2gnVvNa4o-eyoSWxKgLZ-187" value="&lt;font style=&quot;font-size: 17px;&quot;&gt;상세페이지&lt;/font&gt;" style="text;html=1;strokeColor=none;fillColor=none;align=center;verticalAlign=middle;whiteSpace=wrap;rounded=0;fontSize=17;" vertex="1" parent="WIyWlLk6GJQsqaUBKTNV-1">
          <mxGeometry x="1650" y="57.5" width="140" height="45" as="geometry" />
        </mxCell>
        <mxCell id="2gnVvNa4o-eyoSWxKgLZ-188" value="좋아요&lt;br&gt;(+집계)" style="rounded=0;whiteSpace=wrap;html=1;fontSize=18;" vertex="1" parent="WIyWlLk6GJQsqaUBKTNV-1">
          <mxGeometry x="1700" y="233.5" width="120" height="60" as="geometry" />
        </mxCell>
        <mxCell id="2gnVvNa4o-eyoSWxKgLZ-189" value="진행상황" style="rounded=0;whiteSpace=wrap;html=1;fontSize=18;" vertex="1" parent="WIyWlLk6GJQsqaUBKTNV-1">
          <mxGeometry x="1920" y="343.5" width="110" height="60" as="geometry" />
        </mxCell>
        <mxCell id="2gnVvNa4o-eyoSWxKgLZ-190" value="문의" style="rounded=0;whiteSpace=wrap;html=1;fontSize=18;" vertex="1" parent="WIyWlLk6GJQsqaUBKTNV-1">
          <mxGeometry x="1920" y="428.5" width="110" height="60" as="geometry" />
        </mxCell>
        <mxCell id="2gnVvNa4o-eyoSWxKgLZ-191" value="기능" style="swimlane;fontStyle=0;childLayout=stackLayout;horizontal=1;startSize=30;horizontalStack=0;resizeParent=1;resizeParentMax=0;resizeLast=0;collapsible=1;marginBottom=0;fontSize=18;" vertex="1" parent="WIyWlLk6GJQsqaUBKTNV-1">
          <mxGeometry x="1805" y="72.5" width="140" height="90" as="geometry" />
        </mxCell>
        <mxCell id="2gnVvNa4o-eyoSWxKgLZ-192" value="오픈 날짜" style="text;strokeColor=none;fillColor=none;align=left;verticalAlign=middle;spacingLeft=4;spacingRight=4;overflow=hidden;points=[[0,0.5],[1,0.5]];portConstraint=eastwest;rotatable=0;fontSize=18;" vertex="1" parent="2gnVvNa4o-eyoSWxKgLZ-191">
          <mxGeometry y="30" width="140" height="30" as="geometry" />
        </mxCell>
        <mxCell id="2gnVvNa4o-eyoSWxKgLZ-193" value="판매자정보" style="text;strokeColor=none;fillColor=none;align=left;verticalAlign=middle;spacingLeft=4;spacingRight=4;overflow=hidden;points=[[0,0.5],[1,0.5]];portConstraint=eastwest;rotatable=0;fontSize=18;" vertex="1" parent="2gnVvNa4o-eyoSWxKgLZ-191">
          <mxGeometry y="60" width="140" height="30" as="geometry" />
        </mxCell>
      </root>
    </mxGraphModel>
  </diagram>
</mxfile>
